<svg>
  <g style="overflow:hidden;fill:none;stroke:#818181;stroke-width:1" id="2" >
    <g id="3">
		 <path d="M -7.89,4.12 C -9.77,3.93 -8.43,1.22 -8.98,-1.19 -9.22,-3.23 -7.46,-2.59 -6.97,-3.93 -3.41,-14 18,-3.56 4.87,5.91 L 4.41,5.83 3.9,4.95 3.52,5.02 2,4.73 3.15,4.35 2.07,3.99 1.23,4.04 0.27,3.89 M -1.95,4.67 C -0.2,5.41 -0.52,2.94 -0.08,2.76 1.97,-0.55 -1.22,-3.27 -4.55,-2.31 M -4.51,1.97 C 3.23,4.79 -2.09,-4.45 -4.93,0.12 M -8.68,6.7 C -9.16,5.14 -8.07,5.56 -7.05,2 -3.86,-1.27 -8.37,-2.95 -8.74,-0.9 M -6.96,4.02 C -2.88,5.86 -6.07,-0.04 -6.37,2.19 M -8.49,6.73 L -8.49,7.25 -8.4,7.71 M -7.4,6.7 L -7.61,7.34 -7.58,7.89 M -5.23,7.13 L -5.42,7.89 M -3.77,7.1 L -3.77,7.8 M -2.55,6.67 L -2.43,7.65 M -1.55,5.39 L -1.21,6.19 -1.18,6.98 -1.27,7.16 " id="4" />
    </g>
  </g>
</svg>
