<svg>
  <g style="overflow:hidden;fill:none;stroke:#CCFF66;stroke-width:1" id="2" >
    <g id="3">
		 <path d="M -10,-10 L -8,-8 -6,-10 M -10,2 L -8,0 -6,2 M -8,-8 L -8,0 M -8,-6 C -9,-7 -9,-5 -10,-6 M -8,-2 C -7,-1 -7,-3 -6,-2 M 0,-10 L 2,-8 4,-10 M 0,2 L 2,0 4,2 M 2,-8 L 2,0 M 2,-6 C 1,-7 1,-5 0,-6 M 2,-2 C 3,-1 3,-3 4,-2 M -4,-2 L -2,0 0,-2 M -4,10 L -2,8 0,10 M -2,0 L -2,8 M -2,2 C -3,1 -3,3 -4,2 M -2,6 C -1,7 -1,5 0,6 M 6,-2 L 8,0 10,-2 M 6,10 L 8,8 10,10 M 8,0 L 8,8 M 8,2 C 7,1 7,3 6,2 M 8,6 C 9,7 9,5 10,6 " id="4" />
    </g>
  </g>
</svg>
