  0
SECTION
  2
HEADER
  9
$ACADVER
  1
AC1009
  9
$INSBASE
 10
0.0
 20
0.0
 30
0.0
  9
$EXTMIN
 10
0.0
 20
-20.0
 30
0.0
  9
$EXTMAX
 10
75.0
 20
20.0
 30
0.0
  9
$LIMMIN
 10
0.0
 20
0.0
  9
$LIMMAX
 10
420.0
 20
297.0
  9
$ORTHOMODE
 70
     0
  9
$REGENMODE
 70
     1
  9
$FILLMODE
 70
     1
  9
$QTEXTMODE
 70
     0
  9
$MIRRTEXT
 70
     0
  9
$DRAGMODE
 70
     2
  9
$LTSCALE
 40
1.0
  9
$OSMODE
 70
   767
  9
$ATTMODE
 70
     1
  9
$TEXTSIZE
 40
2.5
  9
$TRACEWID
 40
1.0
  9
$TEXTSTYLE
  7
STANDARD
  9
$CLAYER
  8
0
  9
$CELTYPE
  6
BYLAYER
  9
$CECOLOR
 62
   256
  9
$DIMSCALE
 40
1.0
  9
$DIMASZ
 40
2.5
  9
$DIMEXO
 40
0.625
  9
$DIMDLI
 40
3.75
  9
$DIMRND
 40
0.0
  9
$DIMDLE
 40
0.0
  9
$DIMEXE
 40
1.25
  9
$DIMTP
 40
0.0
  9
$DIMTM
 40
0.0
  9
$DIMTXT
 40
2.5
  9
$DIMCEN
 40
2.5
  9
$DIMTSZ
 40
0.0
  9
$DIMTOL
 70
     0
  9
$DIMLIM
 70
     0
  9
$DIMTIH
 70
     0
  9
$DIMTOH
 70
     0
  9
$DIMSE1
 70
     0
  9
$DIMSE2
 70
     0
  9
$DIMTAD
 70
     1
  9
$DIMZIN
 70
     8
  9
$DIMBLK
  1

  9
$DIMASO
 70
     1
  9
$DIMSHO
 70
     1
  9
$DIMPOST
  1

  9
$DIMAPOST
  1

  9
$DIMALT
 70
     0
  9
$DIMALTD
 70
     3
  9
$DIMALTF
 40
0.03937007874016
  9
$DIMLFAC
 40
1.0
  9
$DIMTOFL
 70
     1
  9
$DIMTVP
 40
0.0
  9
$DIMTIX
 70
     0
  9
$DIMSOXD
 70
     0
  9
$DIMSAH
 70
     0
  9
$DIMBLK1
  1

  9
$DIMBLK2
  1

  9
$DIMSTYLE
  2
ISO-25
  9
$DIMCLRD
 70
     0
  9
$DIMCLRE
 70
     0
  9
$DIMCLRT
 70
     0
  9
$DIMTFAC
 40
1.0
  9
$DIMGAP
 40
0.625
  9
$LUNITS
 70
     2
  9
$LUPREC
 70
     4
  9
$SKETCHINC
 40
1.0
  9
$FILLETRAD
 40
0.0
  9
$AUNITS
 70
     0
  9
$AUPREC
 70
     0
  9
$MENU
  1
.
  9
$ELEVATION
 40
0.0
  9
$PELEVATION
 40
0.0
  9
$THICKNESS
 40
0.0
  9
$LIMCHECK
 70
     0
  9
$BLIPMODE
 70
     1
  9
$CHAMFERA
 40
0.0
  9
$CHAMFERB
 40
0.0
  9
$SKPOLY
 70
     0
  9
$TDCREATE
 40
2459332.6683725459
  9
$TDUPDATE
 40
2459332.669615915
  9
$TDINDWG
 40
0.0012509028
  9
$TDUSRTIMER
 40
0.0012509028
  9
$USRTIMER
 70
     1
  9
$ANGBASE
 50
0.0
  9
$ANGDIR
 70
     0
  9
$PDMODE
 70
     0
  9
$PDSIZE
 40
0.0
  9
$PLINEWID
 40
0.0
  9
$COORDS
 70
     2
  9
$SPLFRAME
 70
     0
  9
$SPLINETYPE
 70
     6
  9
$SPLINESEGS
 70
     8
  9
$ATTDIA
 70
     0
  9
$ATTREQ
 70
     1
  9
$HANDLING
 70
     1
  9
$HANDSEED
  5
329
  9
$SURFTAB1
 70
     6
  9
$SURFTAB2
 70
     6
  9
$SURFTYPE
 70
     6
  9
$SURFU
 70
     6
  9
$SURFV
 70
     6
  9
$UCSNAME
  2

  9
$UCSORG
 10
0.0
 20
0.0
 30
0.0
  9
$UCSXDIR
 10
1.0
 20
0.0
 30
0.0
  9
$UCSYDIR
 10
0.0
 20
1.0
 30
0.0
  9
$PUCSNAME
  2

  9
$PUCSORG
 10
0.0
 20
0.0
 30
0.0
  9
$PUCSXDIR
 10
1.0
 20
0.0
 30
0.0
  9
$PUCSYDIR
 10
0.0
 20
1.0
 30
0.0
  9
$USERI1
 70
     0
  9
$USERI2
 70
     0
  9
$USERI3
 70
     0
  9
$USERI4
 70
     0
  9
$USERI5
 70
     0
  9
$USERR1
 40
0.0
  9
$USERR2
 40
0.0
  9
$USERR3
 40
0.0
  9
$USERR4
 40
0.0
  9
$USERR5
 40
0.0
  9
$WORLDVIEW
 70
     1
  9
$SHADEDGE
 70
     3
  9
$SHADEDIF
 70
    70
  9
$TILEMODE
 70
     1
  9
$MAXACTVP
 70
    64
  9
$PLIMCHECK
 70
     0
  9
$PEXTMIN
 10
1.0000000000000000E+020
 20
1.0000000000000000E+020
 30
1.0000000000000000E+020
  9
$PEXTMAX
 10
-1.0000000000000000E+020
 20
-1.0000000000000000E+020
 30
-1.0000000000000000E+020
  9
$PLIMMIN
 10
0.0
 20
0.0
  9
$PLIMMAX
 10
420.0
 20
297.0
  9
$UNITMODE
 70
     0
  9
$VISRETAIN
 70
     1
  9
$PLINEGEN
 70
     0
  9
$PSLTSCALE
 70
     1
  0
ENDSEC
  0
SECTION
  2
TABLES
  0
TABLE
  2
VPORT
 70
     1
  0
VPORT
  2
*ACTIVE
 70
     0
 10
0.0
 20
0.0
 11
1.0
 21
1.0
 12
23.403501932884222
 22
-4.2576317462689266
 13
0.0
 23
0.0
 14
10.0
 24
10.0
 15
10.0
 25
10.0
 16
0.0
 26
0.0
 36
1.0
 17
0.0
 27
0.0
 37
0.0
 40
141.57243620260229
 41
1.1832258064516119
 42
50.0
 43
0.0
 44
0.0
 50
0.0
 51
0.0
 71
     0
 72
  1000
 73
     1
 74
     3
 75
     0
 76
     0
 77
     0
 78
     0
  0
ENDTAB
  0
TABLE
  2
LTYPE
 70
     1
  0
LTYPE
  2
CONTINUOUS
 70
     0
  3
Solid line
 72
    65
 73
     0
 40
0.0
  0
ENDTAB
  0
TABLE
  2
LAYER
 70
     1
  0
LAYER
  2
0
 70
     0
 62
     7
  6
CONTINUOUS
  0
ENDTAB
  0
TABLE
  2
STYLE
 70
     3
  0
STYLE
  2
STANDARD
 70
     0
 40
0.0
 41
1.0
 50
0.0
 71
     0
 42
2.5
  3
txt
  4

  0
STYLE
  2
ANNOTATIVE
 70
     0
 40
0.0
 41
1.0
 50
0.0
 71
     0
 42
0.2
  3
txt
  4

  0
STYLE
  2
LEGEND
 70
     0
 40
0.0
 41
1.0
 50
0.0
 71
     0
 42
2.5
  3
txt
  4

  0
ENDTAB
  0
TABLE
  2
VIEW
 70
     0
  0
ENDTAB
  0
TABLE
  2
UCS
 70
     0
  0
ENDTAB
  0
TABLE
  2
APPID
 70
    10
  0
APPID
  2
ACAD
 70
     0
  0
APPID
  2
ACADANNOTATIVE
 70
     0
  0
APPID
  2
ACAD_NAV_VCDISPLAY
 70
     0
  0
APPID
  2
ACMAPDMDISPLAYSTYLEREGAPP
 70
     0
  0
APPID
  2
ADE
 70
     0
  0
APPID
  2
DCO15
 70
     0
  0
APPID
  2
ADE_PROJECTION
 70
     0
  0
APPID
  2
MAPGWS
 70
     0
  0
APPID
  2
ACAD_MLEADERVER
 70
     0
  0
APPID
  2
MapManagementAppName
 70
     0
  0
ENDTAB
  0
TABLE
  2
DIMSTYLE
 70
     2
  0
DIMSTYLE
  2
ISO-25
 70
     0
  3

  4

  5

  6

  7

 40
1.0
 41
2.5
 42
0.625
 43
3.75
 44
1.25
 45
0.0
 46
0.0
 47
0.0
 48
0.0
140
2.5
141
2.5
142
0.0
143
0.03937007874016
144
1.0
145
0.0
146
1.0
147
0.625
 71
     0
 72
     0
 73
     0
 74
     0
 75
     0
 76
     0
 77
     1
 78
     8
170
     0
171
     3
172
     1
173
     0
174
     0
175
     0
176
     0
177
     0
178
     0
  0
DIMSTYLE
  2
ANNOTATIVE
 70
     0
  3

  4

  5

  6

  7

 40
1.0
 41
0.18
 42
0.0625
 43
0.38
 44
0.18
 45
0.0
 46
0.0
 47
0.0
 48
0.0
140
0.18
141
0.09
142
0.0
143
25.399999999999999
144
1.0
145
0.0
146
1.0
147
0.09
 71
     0
 72
     0
 73
     1
 74
     1
 75
     0
 76
     0
 77
     0
 78
     0
170
     0
171
     2
172
     0
173
     0
174
     0
175
     0
176
     0
177
     0
178
     0
  0
ENDTAB
  0
ENDSEC
  0
SECTION
  2
BLOCKS
  0
BLOCK
  8
0
  2
$MODEL_SPACE
 70
     0
 10
0.0
 20
0.0
 30
0.0
  3
$MODEL_SPACE
  1

  0
ENDBLK
  5
72
  8
0
  0
BLOCK
 67
     1
  8
0
  2
$PAPER_SPACE
 70
     0
 10
0.0
 20
0.0
 30
0.0
  3
$PAPER_SPACE
  1

  0
ENDBLK
  5
6E
 67
     1
  8
0
  0
ENDSEC
  0
SECTION
  2
ENTITIES
  0
LINE
  5
91
  8
0
 10
0.0
 20
-8.0
 30
0.0
 11
15.0
 21
-8.0
 31
0.0
  0
LINE
  5
92
  8
0
 10
15.0
 20
-8.0
 30
0.0
 11
15.0
 21
-9.0
 31
0.0
  0
LINE
  5
93
  8
0
 10
15.0
 20
-9.0
 30
0.0
 11
0.0
 21
-9.0
 31
0.0
  0
LINE
  5
94
  8
0
 10
0.0
 20
-9.0
 30
0.0
 11
0.0
 21
-10.0
 31
0.0
  0
LINE
  5
95
  8
0
 10
0.0
 20
-10.0
 30
0.0
 11
15.0
 21
-10.0
 31
0.0
  0
LINE
  5
96
  8
0
 10
15.0
 20
-10.0
 30
0.0
 11
15.0
 21
-11.0
 31
0.0
  0
LINE
  5
97
  8
0
 10
15.0
 20
-11.0
 30
0.0
 11
0.0
 21
-11.0
 31
0.0
  0
LINE
  5
98
  8
0
 10
0.0
 20
-1.0
 30
0.0
 11
15.0
 21
-1.0
 31
0.0
  0
LINE
  5
99
  8
0
 10
15.0
 20
-1.0
 30
0.0
 11
15.0
 21
0.0
 31
0.0
  0
LINE
  5
9A
  8
0
 10
15.0
 20
0.0
 30
0.0
 11
7.0
 21
0.0
 31
0.0
  0
LINE
  5
9B
  8
0
 10
7.0
 20
0.0
 30
0.0
 11
7.0
 21
12.0
 31
0.0
  0
LINE
  5
9C
  8
0
 10
7.0
 20
12.0
 30
0.0
 11
6.0
 21
12.0
 31
0.0
  0
LINE
  5
9D
  8
0
 10
6.0
 20
12.0
 30
0.0
 11
6.0
 21
0.0
 31
0.0
  0
LINE
  5
9E
  8
0
 10
6.0
 20
0.0
 30
0.0
 11
0.0
 21
0.0
 31
0.0
  0
LINE
  5
9F
  8
0
 10
0.0
 20
-1.0
 30
0.0
 11
15.0
 21
-1.0
 31
0.0
  0
LINE
  5
A0
  8
0
 10
15.0
 20
-1.0
 30
0.0
 11
22.5
 21
-9.0
 31
0.0
  0
LINE
  5
A1
  8
0
 10
22.5
 20
-9.0
 30
0.0
 11
30.0
 21
-1.0
 31
0.0
  0
LINE
  5
A2
  8
0
 10
30.0
 20
-1.0
 30
0.0
 11
75.0
 21
-1.0
 31
0.0
  0
LINE
  5
A3
  8
0
 10
75.0
 20
-1.0
 30
0.0
 11
75.0
 21
0.0
 31
0.0
  0
LINE
  5
A4
  8
0
 10
75.0
 20
0.0
 30
0.0
 11
30.0
 21
0.0
 31
0.0
  0
LINE
  5
A5
  8
0
 10
30.0
 20
0.0
 30
0.0
 11
22.5
 21
8.0
 31
0.0
  0
LINE
  5
A6
  8
0
 10
22.5
 20
8.0
 30
0.0
 11
15.0
 21
0.0
 31
0.0
  0
LINE
  5
A7
  8
0
 10
15.0
 20
0.0
 30
0.0
 11
0.0
 21
0.0
 31
0.0
  0
LINE
  5
A8
  8
0
 10
0.0
 20
0.0
 30
0.0
 11
15.0
 21
0.0
 31
0.0
  0
LINE
  5
A9
  8
0
 10
15.0
 20
0.0
 30
0.0
 11
15.0
 21
-7.0
 31
0.0
  0
LINE
  5
AA
  8
0
 10
15.0
 20
-7.0
 30
0.0
 11
20.0
 21
0.0
 31
0.0
  0
LINE
  5
AB
  8
0
 10
20.0
 20
0.0
 30
0.0
 11
20.0
 21
1.0
 31
0.0
  0
LINE
  5
AC
  8
0
 10
20.0
 20
1.0
 30
0.0
 11
15.0
 21
8.0
 31
0.0
  0
LINE
  5
AD
  8
0
 10
15.0
 20
8.0
 30
0.0
 11
15.0
 21
1.0
 31
0.0
  0
LINE
  5
AE
  8
0
 10
15.0
 20
1.0
 30
0.0
 11
0.0
 21
1.0
 31
0.0
  0
LINE
  5
AF
  8
0
 10
0.0
 20
0.0
 30
0.0
 11
24.0
 21
0.0
 31
0.0
  0
LINE
  5
B0
  8
0
 10
24.0
 20
0.0
 30
0.0
 11
24.0
 21
-8.0
 31
0.0
  0
LINE
  5
B1
  8
0
 10
24.0
 20
-8.0
 30
0.0
 11
23.0
 21
-8.0
 31
0.0
  0
LINE
  5
B2
  8
0
 10
23.0
 20
-8.0
 30
0.0
 11
23.0
 21
-1.0
 31
0.0
  0
LINE
  5
B3
  8
0
 10
23.0
 20
-1.0
 30
0.0
 11
1.0
 21
-1.0
 31
0.0
  0
LINE
  5
B4
  8
0
 10
1.0
 20
-1.0
 30
0.0
 11
1.0
 21
-8.0
 31
0.0
  0
LINE
  5
B5
  8
0
 10
1.0
 20
-8.0
 30
0.0
 11
0.0
 21
-8.0
 31
0.0
  0
LINE
  5
B6
  8
0
 10
0.0
 20
-8.0
 30
0.0
 11
0.0
 21
0.0
 31
0.0
  0
LINE
  5
B7
  8
0
 10
0.0
 20
-3.0
 30
0.0
 11
6.0
 21
-3.0
 31
0.0
  0
LINE
  5
B8
  8
0
 10
6.0
 20
-3.0
 30
0.0
 11
6.0
 21
-8.0
 31
0.0
  0
LINE
  5
B9
  8
0
 10
6.0
 20
-8.0
 30
0.0
 11
7.0
 21
-8.0
 31
0.0
  0
LINE
  5
BA
  8
0
 10
7.0
 20
-8.0
 30
0.0
 11
7.0
 21
-3.0
 31
0.0
  0
LINE
  5
BB
  8
0
 10
7.0
 20
-3.0
 30
0.0
 11
13.0
 21
-3.0
 31
0.0
  0
LINE
  5
BC
  8
0
 10
13.0
 20
-3.0
 30
0.0
 11
13.0
 21
-2.0
 31
0.0
  0
LINE
  5
BD
  8
0
 10
13.0
 20
-2.0
 30
0.0
 11
0.0
 21
-2.0
 31
0.0
  0
LINE
  5
BE
  8
0
 10
0.0
 20
3.0
 30
0.0
 11
6.0
 21
3.0
 31
0.0
  0
LINE
  5
BF
  8
0
 10
6.0
 20
3.0
 30
0.0
 11
6.0
 21
8.0
 31
0.0
  0
LINE
  5
C0
  8
0
 10
6.0
 20
8.0
 30
0.0
 11
7.0
 21
8.0
 31
0.0
  0
LINE
  5
C1
  8
0
 10
7.0
 20
8.0
 30
0.0
 11
7.0
 21
3.0
 31
0.0
  0
LINE
  5
C2
  8
0
 10
7.0
 20
3.0
 30
0.0
 11
13.0
 21
3.0
 31
0.0
  0
LINE
  5
C3
  8
0
 10
13.0
 20
3.0
 30
0.0
 11
13.0
 21
2.0
 31
0.0
  0
LINE
  5
C4
  8
0
 10
13.0
 20
2.0
 30
0.0
 11
0.0
 21
2.0
 31
0.0
  0
LINE
  5
C5
  8
0
 10
0.0
 20
0.0
 30
0.0
 11
15.0
 21
0.0
 31
0.0
  0
LINE
  5
C6
  8
0
 10
15.0
 20
0.0
 30
0.0
 11
15.0
 21
-1.0
 31
0.0
  0
LINE
  5
C7
  8
0
 10
15.0
 20
-1.0
 30
0.0
 11
8.0
 21
-1.0
 31
0.0
  0
LINE
  5
C8
  8
0
 10
8.0
 20
-1.0
 30
0.0
 11
8.0
 21
-7.0
 31
0.0
  0
LINE
  5
C9
  8
0
 10
8.0
 20
-7.0
 30
0.0
 11
7.0
 21
-7.0
 31
0.0
  0
LINE
  5
CA
  8
0
 10
7.0
 20
-7.0
 30
0.0
 11
7.0
 21
-1.0
 31
0.0
  0
LINE
  5
CB
  8
0
 10
7.0
 20
-1.0
 30
0.0
 11
0.0
 21
-1.0
 31
0.0
  0
LINE
  5
CC
  8
0
 10
0.0
 20
0.0
 30
0.0
 11
15.0
 21
0.0
 31
0.0
  0
LINE
  5
CD
  8
0
 10
15.0
 20
0.0
 30
0.0
 11
15.0
 21
-1.0
 31
0.0
  0
LINE
  5
CE
  8
0
 10
15.0
 20
-1.0
 30
0.0
 11
8.0
 21
-1.0
 31
0.0
  0
LINE
  5
CF
  8
0
 10
8.0
 20
-1.0
 30
0.0
 11
8.0
 21
-7.0
 31
0.0
  0
LINE
  5
D0
  8
0
 10
8.0
 20
-7.0
 30
0.0
 11
7.0
 21
-7.0
 31
0.0
  0
LINE
  5
D1
  8
0
 10
7.0
 20
-7.0
 30
0.0
 11
7.0
 21
-1.0
 31
0.0
  0
LINE
  5
D2
  8
0
 10
7.0
 20
-1.0
 30
0.0
 11
0.0
 21
-1.0
 31
0.0
  0
LINE
  5
D3
  8
0
 10
0.0
 20
0.0
 30
0.0
 11
20.0
 21
0.0
 31
0.0
  0
LINE
  5
D4
  8
0
 10
20.0
 20
0.0
 30
0.0
 11
20.0
 21
-1.0
 31
0.0
  0
LINE
  5
D5
  8
0
 10
20.0
 20
-1.0
 30
0.0
 11
0.0
 21
-1.0
 31
0.0
  0
LINE
  5
D6
  8
0
 10
0.0
 20
-1.0
 30
0.0
 11
0.0
 21
-8.0
 31
0.0
  0
LINE
  5
D7
  8
0
 10
0.0
 20
-8.0
 30
0.0
 11
9.0
 21
-8.0
 31
0.0
  0
LINE
  5
D8
  8
0
 10
9.0
 20
-8.0
 30
0.0
 11
9.0
 21
-9.0
 31
0.0
  0
LINE
  5
D9
  8
0
 10
9.0
 20
-9.0
 30
0.0
 11
0.0
 21
-9.0
 31
0.0
  0
LINE
  5
DA
  8
0
 10
0.0
 20
0.0
 30
0.0
 11
10.0
 21
-2.0
 31
0.0
  0
LINE
  5
DB
  8
0
 10
10.0
 20
-2.0
 30
0.0
 11
6.0
 21
-8.0
 31
0.0
  0
LINE
  5
DC
  8
0
 10
6.0
 20
-8.0
 30
0.0
 11
0.0
 21
-1.0
 31
0.0
  0
LINE
  5
DD
  8
0
 10
0.0
 20
-1.0
 30
0.0
 11
1.0
 21
-1.0
 31
0.0
  0
LINE
  5
DE
  8
0
 10
1.0
 20
-1.0
 30
0.0
 11
5.0
 21
-6.0
 31
0.0
  0
LINE
  5
DF
  8
0
 10
5.0
 20
-6.0
 30
0.0
 11
6.0
 21
-6.0
 31
0.0
  0
LINE
  5
E0
  8
0
 10
6.0
 20
-6.0
 30
0.0
 11
8.0
 21
-2.0
 31
0.0
  0
LINE
  5
E1
  8
0
 10
8.0
 20
-2.0
 30
0.0
 11
1.0
 21
-1.0
 31
0.0
  0
LINE
  5
E2
  8
0
 10
0.0
 20
-1.0
 30
0.0
 11
15.0
 21
-1.0
 31
0.0
  0
LINE
  5
E3
  8
0
 10
15.0
 20
-1.0
 30
0.0
 11
15.0
 21
0.0
 31
0.0
  0
LINE
  5
E4
  8
0
 10
15.0
 20
0.0
 30
0.0
 11
7.0
 21
0.0
 31
0.0
  0
LINE
  5
E5
  8
0
 10
7.0
 20
0.0
 30
0.0
 11
7.0
 21
12.0
 31
0.0
  0
LINE
  5
E6
  8
0
 10
7.0
 20
12.0
 30
0.0
 11
6.0
 21
12.0
 31
0.0
  0
LINE
  5
E7
  8
0
 10
6.0
 20
12.0
 30
0.0
 11
6.0
 21
0.0
 31
0.0
  0
LINE
  5
E8
  8
0
 10
6.0
 20
0.0
 30
0.0
 11
0.0
 21
0.0
 31
0.0
  0
POLYLINE
  5
E9
  8
0
 66
     1
 10
0.0
 20
0.0
 30
0.0
 70
     4
 75
     6
  0
VERTEX
  5
EA
  8
0
 10
0.0
 20
0.0
 30
0.0
 70
    16
  0
VERTEX
  5
EF
  8
0
 10
0.0
 20
0.0
 30
0.0
 70
     8
  0
VERTEX
  5
F0
  8
0
 10
0.6875
 20
-2.4609375
 30
0.0
 70
     8
  0
VERTEX
  5
F1
  8
0
 10
2.5
 20
-4.21875
 30
0.0
 70
     8
  0
VERTEX
  5
F2
  8
0
 10
5.0625
 20
-5.2734375
 30
0.0
 70
     8
  0
VERTEX
  5
F3
  8
0
 10
8.0
 20
-5.625
 30
0.0
 70
     8
  0
VERTEX
  5
F4
  8
0
 10
10.9375
 20
-5.2734375
 30
0.0
 70
     8
  0
VERTEX
  5
F5
  8
0
 10
13.5
 20
-4.21875
 30
0.0
 70
     8
  0
VERTEX
  5
F6
  8
0
 10
15.3125
 20
-2.4609375
 30
0.0
 70
     8
  0
VERTEX
  5
F7
  8
0
 10
16.0
 20
0.0
 30
0.0
 70
     8
  0
VERTEX
  5
EB
  8
0
 10
0.0
 20
-7.5
 30
0.0
 70
    16
  0
VERTEX
  5
EC
  8
0
 10
16.0
 20
-7.5
 30
0.0
 70
    16
  0
VERTEX
  5
ED
  8
0
 10
16.0
 20
0.0
 30
0.0
 70
    16
  0
SEQEND
  5
EE
  8
0
  0
POLYLINE
  5
F8
  8
0
 66
     1
 10
0.0
 20
0.0
 30
0.0
 70
     4
 75
     6
  0
VERTEX
  5
F9
  8
0
 10
16.0
 20
0.0
 30
0.0
 70
    16
  0
VERTEX
  5
FE
  8
0
 10
16.0
 20
0.0
 30
0.0
 70
     8
  0
VERTEX
  5
FF
  8
0
 10
16.6015625
 20
1.96875
 30
0.0
 70
     8
  0
VERTEX
  5
100
  8
0
 10
18.1875
 20
3.375
 30
0.0
 70
     8
  0
VERTEX
  5
101
  8
0
 10
20.4296875
 20
4.21875
 30
0.0
 70
     8
  0
VERTEX
  5
102
  8
0
 10
23.0
 20
4.5
 30
0.0
 70
     8
  0
VERTEX
  5
103
  8
0
 10
25.5703125
 20
4.21875
 30
0.0
 70
     8
  0
VERTEX
  5
104
  8
0
 10
27.8125
 20
3.375
 30
0.0
 70
     8
  0
VERTEX
  5
105
  8
0
 10
29.3984375
 20
1.96875
 30
0.0
 70
     8
  0
VERTEX
  5
106
  8
0
 10
30.0
 20
0.0
 30
0.0
 70
     8
  0
VERTEX
  5
FA
  8
0
 10
16.0
 20
6.0
 30
0.0
 70
    16
  0
VERTEX
  5
FB
  8
0
 10
30.0
 20
6.0
 30
0.0
 70
    16
  0
VERTEX
  5
FC
  8
0
 10
30.0
 20
0.0
 30
0.0
 70
    16
  0
SEQEND
  5
FD
  8
0
  0
LINE
  5
107
  8
0
 10
30.0
 20
0.0
 30
0.0
 11
31.0
 21
0.0
 31
0.0
  0
POLYLINE
  5
108
  8
0
 66
     1
 10
0.0
 20
0.0
 30
0.0
 70
     4
 75
     6
  0
VERTEX
  5
109
  8
0
 10
31.0
 20
0.0
 30
0.0
 70
    16
  0
VERTEX
  5
10E
  8
0
 10
31.0
 20
0.0
 30
0.0
 70
     8
  0
VERTEX
  5
10F
  8
0
 10
30.3125
 20
2.4609375
 30
0.0
 70
     8
  0
VERTEX
  5
110
  8
0
 10
28.5
 20
4.21875
 30
0.0
 70
     8
  0
VERTEX
  5
111
  8
0
 10
25.9375
 20
5.2734375
 30
0.0
 70
     8
  0
VERTEX
  5
112
  8
0
 10
23.0
 20
5.625
 30
0.0
 70
     8
  0
VERTEX
  5
113
  8
0
 10
20.0625
 20
5.2734375
 30
0.0
 70
     8
  0
VERTEX
  5
114
  8
0
 10
17.5
 20
4.21875
 30
0.0
 70
     8
  0
VERTEX
  5
115
  8
0
 10
15.6875
 20
2.4609375
 30
0.0
 70
     8
  0
VERTEX
  5
116
  8
0
 10
15.0
 20
0.0
 30
0.0
 70
     8
  0
VERTEX
  5
10A
  8
0
 10
31.0
 20
7.5
 30
0.0
 70
    16
  0
VERTEX
  5
10B
  8
0
 10
15.0
 20
7.5
 30
0.0
 70
    16
  0
VERTEX
  5
10C
  8
0
 10
15.0
 20
0.0
 30
0.0
 70
    16
  0
SEQEND
  5
10D
  8
0
  0
POLYLINE
  5
117
  8
0
 66
     1
 10
0.0
 20
0.0
 30
0.0
 70
     4
 75
     6
  0
VERTEX
  5
118
  8
0
 10
15.0
 20
0.0
 30
0.0
 70
    16
  0
VERTEX
  5
11D
  8
0
 10
15.0
 20
0.0
 30
0.0
 70
     8
  0
VERTEX
  5
11E
  8
0
 10
14.419921875
 20
-1.96875
 30
0.0
 70
     8
  0
VERTEX
  5
11F
  8
0
 10
12.890625
 20
-3.375
 30
0.0
 70
     8
  0
VERTEX
  5
120
  8
0
 10
10.728515625
 20
-4.21875
 30
0.0
 70
     8
  0
VERTEX
  5
121
  8
0
 10
8.25
 20
-4.5
 30
0.0
 70
     8
  0
VERTEX
  5
122
  8
0
 10
5.771484375
 20
-4.21875
 30
0.0
 70
     8
  0
VERTEX
  5
123
  8
0
 10
3.609375
 20
-3.375
 30
0.0
 70
     8
  0
VERTEX
  5
124
  8
0
 10
2.080078125
 20
-1.96875
 30
0.0
 70
     8
  0
VERTEX
  5
125
  8
0
 10
1.5
 20
0.0
 30
0.0
 70
     8
  0
VERTEX
  5
119
  8
0
 10
15.0
 20
-6.0
 30
0.0
 70
    16
  0
VERTEX
  5
11A
  8
0
 10
1.5
 20
-6.0
 30
0.0
 70
    16
  0
VERTEX
  5
11B
  8
0
 10
1.5
 20
0.0
 30
0.0
 70
    16
  0
SEQEND
  5
11C
  8
0
  0
LINE
  5
126
  8
0
 10
1.5
 20
0.0
 30
0.0
 11
0.0
 21
0.0
 31
0.0
  0
LINE
  5
127
  8
0
 10
0.0
 20
0.0
 30
0.0
 11
15.0
 21
0.0
 31
0.0
  0
LINE
  5
128
  8
0
 10
15.0
 20
0.0
 30
0.0
 11
15.0
 21
-1.0
 31
0.0
  0
LINE
  5
129
  8
0
 10
15.0
 20
-1.0
 30
0.0
 11
1.0
 21
-1.0
 31
0.0
  0
LINE
  5
12A
  8
0
 10
1.0
 20
-1.0
 30
0.0
 11
1.0
 21
-2.0
 31
0.0
  0
LINE
  5
12B
  8
0
 10
1.0
 20
-2.0
 30
0.0
 11
15.0
 21
-2.0
 31
0.0
  0
LINE
  5
12C
  8
0
 10
15.0
 20
-2.0
 30
0.0
 11
15.0
 21
-3.0
 31
0.0
  0
LINE
  5
12D
  8
0
 10
15.0
 20
-3.0
 30
0.0
 11
9.0
 21
-3.0
 31
0.0
  0
LINE
  5
12E
  8
0
 10
9.0
 20
-3.0
 30
0.0
 11
9.0
 21
-9.0
 31
0.0
  0
LINE
  5
12F
  8
0
 10
9.0
 20
-9.0
 30
0.0
 11
8.0
 21
-9.0
 31
0.0
  0
LINE
  5
130
  8
0
 10
8.0
 20
-9.0
 30
0.0
 11
8.0
 21
-3.0
 31
0.0
  0
LINE
  5
131
  8
0
 10
8.0
 20
-3.0
 30
0.0
 11
7.0
 21
-3.0
 31
0.0
  0
LINE
  5
132
  8
0
 10
7.0
 20
-3.0
 30
0.0
 11
7.0
 21
-9.0
 31
0.0
  0
LINE
  5
133
  8
0
 10
7.0
 20
-9.0
 30
0.0
 11
6.0
 21
-9.0
 31
0.0
  0
LINE
  5
134
  8
0
 10
6.0
 20
-9.0
 30
0.0
 11
6.0
 21
-3.0
 31
0.0
  0
LINE
  5
135
  8
0
 10
6.0
 20
-3.0
 30
0.0
 11
0.0
 21
-3.0
 31
0.0
  0
LINE
  5
136
  8
0
 10
0.0
 20
-3.0
 30
0.0
 11
0.0
 21
0.0
 31
0.0
  0
LINE
  5
137
  8
0
 10
0.0
 20
0.0
 30
0.0
 11
37.0
 21
0.0
 31
0.0
  0
LINE
  5
138
  8
0
 10
37.0
 20
0.0
 30
0.0
 11
37.0
 21
-1.0
 31
0.0
  0
LINE
  5
139
  8
0
 10
37.0
 20
-1.0
 30
0.0
 11
0.0
 21
-1.0
 31
0.0
  0
LINE
  5
13A
  8
0
 10
0.0
 20
-12.0
 30
0.0
 11
37.0
 21
-12.0
 31
0.0
  0
LINE
  5
13B
  8
0
 10
37.0
 20
-12.0
 30
0.0
 11
37.0
 21
-13.0
 31
0.0
  0
LINE
  5
13C
  8
0
 10
37.0
 20
-13.0
 30
0.0
 11
0.0
 21
-13.0
 31
0.0
  0
LINE
  5
13D
  8
0
 10
5.0
 20
-1.0
 30
0.0
 11
5.0
 21
-12.0
 31
0.0
  0
LINE
  5
13E
  8
0
 10
5.0
 20
-12.0
 30
0.0
 11
6.0
 21
-12.0
 31
0.0
  0
LINE
  5
13F
  8
0
 10
6.0
 20
-12.0
 30
0.0
 11
6.0
 21
-1.0
 31
0.0
  0
LINE
  5
140
  8
0
 10
23.0
 20
-1.0
 30
0.0
 11
23.0
 21
-12.0
 31
0.0
  0
LINE
  5
141
  8
0
 10
23.0
 20
-12.0
 30
0.0
 11
24.0
 21
-12.0
 31
0.0
  0
LINE
  5
142
  8
0
 10
24.0
 20
-12.0
 30
0.0
 11
24.0
 21
-1.0
 31
0.0
  0
LINE
  5
143
  8
0
 10
0.0
 20
0.0
 30
0.0
 11
21.0
 21
0.0
 31
0.0
  0
LINE
  5
144
  8
0
 10
21.0
 20
0.0
 30
0.0
 11
21.0
 21
-1.0
 31
0.0
  0
LINE
  5
145
  8
0
 10
21.0
 20
-1.0
 30
0.0
 11
14.0
 21
-1.0
 31
0.0
  0
LINE
  5
146
  8
0
 10
14.0
 20
-1.0
 30
0.0
 11
14.0
 21
-8.0
 31
0.0
  0
LINE
  5
147
  8
0
 10
14.0
 20
-8.0
 30
0.0
 11
17.0
 21
-8.0
 31
0.0
  0
LINE
  5
148
  8
0
 10
17.0
 20
-8.0
 30
0.0
 11
17.0
 21
-9.0
 31
0.0
  0
LINE
  5
149
  8
0
 10
17.0
 20
-9.0
 30
0.0
 11
14.0
 21
-9.0
 31
0.0
  0
LINE
  5
14A
  8
0
 10
14.0
 20
-9.0
 30
0.0
 11
14.0
 21
-1.0
 31
0.0
  0
LINE
  5
14B
  8
0
 10
14.0
 20
-1.0
 30
0.0
 11
0.0
 21
-1.0
 31
0.0
  0
LINE
  5
14C
  8
0
 10
0.0
 20
-1.0
 30
0.0
 11
0.0
 21
-8.0
 31
0.0
  0
LINE
  5
14D
  8
0
 10
0.0
 20
-8.0
 30
0.0
 11
10.0
 21
-8.0
 31
0.0
  0
LINE
  5
14E
  8
0
 10
10.0
 20
-8.0
 30
0.0
 11
10.0
 21
-9.0
 31
0.0
  0
LINE
  5
14F
  8
0
 10
10.0
 20
-9.0
 30
0.0
 11
0.0
 21
-9.0
 31
0.0
  0
LINE
  5
150
  8
0
 10
0.0
 20
-4.0
 30
0.0
 11
13.0
 21
-4.0
 31
0.0
  0
LINE
  5
151
  8
0
 10
13.0
 20
-4.0
 30
0.0
 11
13.0
 21
-3.0
 31
0.0
  0
LINE
  5
152
  8
0
 10
13.0
 20
-3.0
 30
0.0
 11
7.0
 21
-3.0
 31
0.0
  0
LINE
  5
153
  8
0
 10
7.0
 20
-3.0
 30
0.0
 11
7.0
 21
3.0
 31
0.0
  0
LINE
  5
154
  8
0
 10
7.0
 20
3.0
 30
0.0
 11
13.0
 21
3.0
 31
0.0
  0
LINE
  5
155
  8
0
 10
13.0
 20
3.0
 30
0.0
 11
13.0
 21
4.0
 31
0.0
  0
LINE
  5
156
  8
0
 10
13.0
 20
4.0
 30
0.0
 11
0.0
 21
4.0
 31
0.0
  0
LINE
  5
157
  8
0
 10
0.0
 20
4.0
 30
0.0
 11
0.0
 21
3.0
 31
0.0
  0
LINE
  5
158
  8
0
 10
0.0
 20
3.0
 30
0.0
 11
6.0
 21
3.0
 31
0.0
  0
LINE
  5
159
  8
0
 10
6.0
 20
3.0
 30
0.0
 11
6.0
 21
-3.0
 31
0.0
  0
LINE
  5
15A
  8
0
 10
6.0
 20
-3.0
 30
0.0
 11
0.0
 21
-3.0
 31
0.0
  0
LINE
  5
15B
  8
0
 10
0.0
 20
-1.0
 30
0.0
 11
15.0
 21
-1.0
 31
0.0
  0
LINE
  5
15C
  8
0
 10
15.0
 20
-1.0
 30
0.0
 11
15.0
 21
0.0
 31
0.0
  0
LINE
  5
15D
  8
0
 10
15.0
 20
0.0
 30
0.0
 11
7.0
 21
0.0
 31
0.0
  0
LINE
  5
15E
  8
0
 10
7.0
 20
0.0
 30
0.0
 11
7.0
 21
8.0
 31
0.0
  0
LINE
  5
15F
  8
0
 10
7.0
 20
8.0
 30
0.0
 11
6.0
 21
8.0
 31
0.0
  0
LINE
  5
160
  8
0
 10
6.0
 20
8.0
 30
0.0
 11
6.0
 21
0.0
 31
0.0
  0
LINE
  5
161
  8
0
 10
6.0
 20
0.0
 30
0.0
 11
0.0
 21
0.0
 31
0.0
  0
LINE
  5
162
  8
0
 10
0.0
 20
0.0
 30
0.0
 11
4.0
 21
2.0
 31
0.0
  0
LINE
  5
163
  8
0
 10
4.0
 20
2.0
 30
0.0
 11
8.0
 21
2.0
 31
0.0
  0
LINE
  5
164
  8
0
 10
8.0
 20
2.0
 30
0.0
 11
12.0
 21
0.0
 31
0.0
  0
LINE
  5
165
  8
0
 10
12.0
 20
0.0
 30
0.0
 11
12.0
 21
2.0
 31
0.0
  0
LINE
  5
166
  8
0
 10
12.0
 20
2.0
 30
0.0
 11
8.0
 21
4.0
 31
0.0
  0
LINE
  5
167
  8
0
 10
8.0
 20
4.0
 30
0.0
 11
4.0
 21
4.0
 31
0.0
  0
LINE
  5
168
  8
0
 10
4.0
 20
4.0
 30
0.0
 11
0.0
 21
2.0
 31
0.0
  0
LINE
  5
169
  8
0
 10
0.0
 20
2.0
 30
0.0
 11
0.0
 21
0.0
 31
0.0
  0
LINE
  5
16A
  8
0
 10
0.0
 20
0.0
 30
0.0
 11
4.0
 21
2.0
 31
0.0
  0
LINE
  5
16B
  8
0
 10
4.0
 20
2.0
 30
0.0
 11
8.0
 21
2.0
 31
0.0
  0
LINE
  5
16C
  8
0
 10
8.0
 20
2.0
 30
0.0
 11
12.0
 21
0.0
 31
0.0
  0
LINE
  5
16D
  8
0
 10
12.0
 20
0.0
 30
0.0
 11
12.0
 21
2.0
 31
0.0
  0
LINE
  5
16E
  8
0
 10
12.0
 20
2.0
 30
0.0
 11
8.0
 21
6.0
 31
0.0
  0
LINE
  5
16F
  8
0
 10
8.0
 20
6.0
 30
0.0
 11
4.0
 21
6.0
 31
0.0
  0
LINE
  5
170
  8
0
 10
4.0
 20
6.0
 30
0.0
 11
0.0
 21
2.0
 31
0.0
  0
LINE
  5
171
  8
0
 10
0.0
 20
2.0
 30
0.0
 11
0.0
 21
0.0
 31
0.0
  0
LINE
  5
172
  8
0
 10
0.0
 20
0.0
 30
0.0
 11
0.0
 21
-4.0
 31
0.0
  0
LINE
  5
173
  8
0
 10
0.0
 20
-4.0
 30
0.0
 11
12.0
 21
-4.0
 31
0.0
  0
LINE
  5
174
  8
0
 10
12.0
 20
-4.0
 30
0.0
 11
12.0
 21
-7.0
 31
0.0
  0
LINE
  5
175
  8
0
 10
12.0
 20
-7.0
 30
0.0
 11
0.0
 21
-7.0
 31
0.0
  0
LINE
  5
176
  8
0
 10
0.0
 20
-7.0
 30
0.0
 11
0.0
 21
-3.0
 31
0.0
  0
LINE
  5
177
  8
0
 10
0.0
 20
-1.0
 30
0.0
 11
15.0
 21
-1.0
 31
0.0
  0
LINE
  5
178
  8
0
 10
15.0
 20
-1.0
 30
0.0
 11
15.0
 21
-9.0
 31
0.0
  0
LINE
  5
179
  8
0
 10
15.0
 20
-9.0
 30
0.0
 11
22.5
 21
-1.0
 31
0.0
  0
LINE
  5
17A
  8
0
 10
22.5
 20
-1.0
 30
0.0
 11
75.0
 21
-1.0
 31
0.0
  0
LINE
  5
17B
  8
0
 10
75.0
 20
-1.0
 30
0.0
 11
75.0
 21
0.0
 31
0.0
  0
LINE
  5
17C
  8
0
 10
75.0
 20
0.0
 30
0.0
 11
22.5
 21
0.0
 31
0.0
  0
LINE
  5
17D
  8
0
 10
22.5
 20
0.0
 30
0.0
 11
15.0
 21
8.0
 31
0.0
  0
LINE
  5
17E
  8
0
 10
15.0
 20
8.0
 30
0.0
 11
15.0
 21
0.0
 31
0.0
  0
LINE
  5
17F
  8
0
 10
15.0
 20
0.0
 30
0.0
 11
0.0
 21
0.0
 31
0.0
  0
POLYLINE
  5
180
  8
0
 66
     1
 10
0.0
 20
0.0
 30
0.0
 70
     4
 75
     6
  0
VERTEX
  5
181
  8
0
 10
0.0
 20
0.0
 30
0.0
 70
    16
  0
VERTEX
  5
186
  8
0
 10
0.0
 20
0.0
 30
0.0
 70
     8
  0
VERTEX
  5
187
  8
0
 10
2.765625
 20
5.25
 30
0.0
 70
     8
  0
VERTEX
  5
188
  8
0
 10
6.375
 20
9.0
 30
0.0
 70
     8
  0
VERTEX
  5
189
  8
0
 10
10.546875
 20
11.25
 30
0.0
 70
     8
  0
VERTEX
  5
18A
  8
0
 10
15.0
 20
12.0
 30
0.0
 70
     8
  0
VERTEX
  5
18B
  8
0
 10
19.453125
 20
11.25
 30
0.0
 70
     8
  0
VERTEX
  5
18C
  8
0
 10
23.625
 20
9.0
 30
0.0
 70
     8
  0
VERTEX
  5
18D
  8
0
 10
27.234375
 20
5.25
 30
0.0
 70
     8
  0
VERTEX
  5
18E
  8
0
 10
30.0
 20
0.0
 30
0.0
 70
     8
  0
VERTEX
  5
182
  8
0
 10
6.0
 20
16.0
 30
0.0
 70
    16
  0
VERTEX
  5
183
  8
0
 10
24.0
 20
16.0
 30
0.0
 70
    16
  0
VERTEX
  5
184
  8
0
 10
30.0
 20
0.0
 30
0.0
 70
    16
  0
SEQEND
  5
185
  8
0
  0
POLYLINE
  5
18F
  8
0
 66
     1
 10
0.0
 20
0.0
 30
0.0
 70
     4
 75
     6
  0
VERTEX
  5
190
  8
0
 10
30.0
 20
0.0
 30
0.0
 70
    16
  0
VERTEX
  5
195
  8
0
 10
30.0
 20
0.0
 30
0.0
 70
     8
  0
VERTEX
  5
196
  8
0
 10
27.234375
 20
4.59375
 30
0.0
 70
     8
  0
VERTEX
  5
197
  8
0
 10
23.625
 20
7.875
 30
0.0
 70
     8
  0
VERTEX
  5
198
  8
0
 10
19.453125
 20
9.84375
 30
0.0
 70
     8
  0
VERTEX
  5
199
  8
0
 10
15.0
 20
10.5
 30
0.0
 70
     8
  0
VERTEX
  5
19A
  8
0
 10
10.546875
 20
9.84375
 30
0.0
 70
     8
  0
VERTEX
  5
19B
  8
0
 10
6.375
 20
7.875
 30
0.0
 70
     8
  0
VERTEX
  5
19C
  8
0
 10
2.765625
 20
4.59375
 30
0.0
 70
     8
  0
VERTEX
  5
19D
  8
0
 10
0.0
 20
0.0
 30
0.0
 70
     8
  0
VERTEX
  5
191
  8
0
 10
24.0
 20
14.0
 30
0.0
 70
    16
  0
VERTEX
  5
192
  8
0
 10
6.0
 20
14.0
 30
0.0
 70
    16
  0
VERTEX
  5
193
  8
0
 10
0.0
 20
0.0
 30
0.0
 70
    16
  0
SEQEND
  5
194
  8
0
  0
LINE
  5
19E
  8
0
 10
0.0
 20
0.0
 30
0.0
 11
27.0
 21
0.0
 31
0.0
  0
LINE
  5
19F
  8
0
 10
27.0
 20
0.0
 30
0.0
 11
27.0
 21
-1.0
 31
0.0
  0
LINE
  5
1A0
  8
0
 10
27.0
 20
-1.0
 30
0.0
 11
0.0
 21
-1.0
 31
0.0
  0
LINE
  5
1A1
  8
0
 10
5.0
 20
-7.0
 30
0.0
 11
14.0
 21
-7.0
 31
0.0
  0
LINE
  5
1A2
  8
0
 10
14.0
 20
-7.0
 30
0.0
 11
14.0
 21
-8.0
 31
0.0
  0
LINE
  5
1A3
  8
0
 10
14.0
 20
-8.0
 30
0.0
 11
5.0
 21
-8.0
 31
0.0
  0
LINE
  5
1A4
  8
0
 10
9.0
 20
-3.0
 30
0.0
 11
9.0
 21
-12.0
 31
0.0
  0
LINE
  5
1A5
  8
0
 10
9.0
 20
-12.0
 30
0.0
 11
10.0
 21
-12.0
 31
0.0
  0
LINE
  5
1A6
  8
0
 10
10.0
 20
-12.0
 30
0.0
 11
10.0
 21
-3.0
 31
0.0
  0
LINE
  5
1A7
  8
0
 10
0.0
 20
0.0
 30
0.0
 11
13.0
 21
0.0
 31
0.0
  0
LINE
  5
1A8
  8
0
 10
13.0
 20
0.0
 30
0.0
 11
10.0
 21
-3.0
 31
0.0
  0
LINE
  5
1A9
  8
0
 10
10.0
 20
-3.0
 30
0.0
 11
11.0
 21
-3.0
 31
0.0
  0
LINE
  5
1AA
  8
0
 10
11.0
 20
-3.0
 30
0.0
 11
14.0
 21
0.0
 31
0.0
  0
LINE
  5
1AB
  8
0
 10
14.0
 20
0.0
 30
0.0
 11
14.0
 21
1.0
 31
0.0
  0
LINE
  5
1AC
  8
0
 10
14.0
 20
1.0
 30
0.0
 11
11.0
 21
4.0
 31
0.0
  0
LINE
  5
1AD
  8
0
 10
11.0
 20
4.0
 30
0.0
 11
10.0
 21
4.0
 31
0.0
  0
LINE
  5
1AE
  8
0
 10
10.0
 20
4.0
 30
0.0
 11
13.0
 21
1.0
 31
0.0
  0
LINE
  5
1AF
  8
0
 10
13.0
 20
1.0
 30
0.0
 11
0.0
 21
1.0
 31
0.0
  0
LINE
  5
1B0
  8
0
 10
0.0
 20
0.0
 30
0.0
 11
0.0
 21
-2.0
 31
0.0
  0
LINE
  5
1B1
  8
0
 10
0.0
 20
-2.0
 30
0.0
 11
6.0
 21
-2.0
 31
0.0
  0
LINE
  5
1B2
  8
0
 10
6.0
 20
-2.0
 30
0.0
 11
6.0
 21
-12.0
 31
0.0
  0
LINE
  5
1B3
  8
0
 10
6.0
 20
-12.0
 30
0.0
 11
0.0
 21
-12.0
 31
0.0
  0
LINE
  5
1B4
  8
0
 10
0.0
 20
-12.0
 30
0.0
 11
0.0
 21
-14.0
 31
0.0
  0
LINE
  5
1B5
  8
0
 10
0.0
 20
-14.0
 30
0.0
 11
14.0
 21
-14.0
 31
0.0
  0
LINE
  5
1B6
  8
0
 10
14.0
 20
-14.0
 30
0.0
 11
14.0
 21
-12.0
 31
0.0
  0
LINE
  5
1B7
  8
0
 10
14.0
 20
-12.0
 30
0.0
 11
8.0
 21
-12.0
 31
0.0
  0
LINE
  5
1B8
  8
0
 10
8.0
 20
-12.0
 30
0.0
 11
8.0
 21
-2.0
 31
0.0
  0
LINE
  5
1B9
  8
0
 10
8.0
 20
-2.0
 30
0.0
 11
14.0
 21
-2.0
 31
0.0
  0
LINE
  5
1BA
  8
0
 10
14.0
 20
-2.0
 30
0.0
 11
14.0
 21
0.0
 31
0.0
  0
LINE
  5
1BB
  8
0
 10
14.0
 20
0.0
 30
0.0
 11
0.0
 21
0.0
 31
0.0
  0
LINE
  5
1BC
  8
0
 10
0.0
 20
0.0
 30
0.0
 11
13.0
 21
0.0
 31
0.0
  0
LINE
  5
1BD
  8
0
 10
13.0
 20
0.0
 30
0.0
 11
13.0
 21
-1.0
 31
0.0
  0
LINE
  5
1BE
  8
0
 10
13.0
 20
-1.0
 30
0.0
 11
7.0
 21
-1.0
 31
0.0
  0
LINE
  5
1BF
  8
0
 10
7.0
 20
-1.0
 30
0.0
 11
7.0
 21
-8.0
 31
0.0
  0
LINE
  5
1C0
  8
0
 10
7.0
 20
-8.0
 30
0.0
 11
6.0
 21
-8.0
 31
0.0
  0
LINE
  5
1C1
  8
0
 10
6.0
 20
-8.0
 30
0.0
 11
6.0
 21
-1.0
 31
0.0
  0
LINE
  5
1C2
  8
0
 10
6.0
 20
-1.0
 30
0.0
 11
0.0
 21
-1.0
 31
0.0
  0
LINE
  5
1C3
  8
0
 10
0.0
 20
-1.0
 30
0.0
 11
0.0
 21
0.0
 31
0.0
  0
LINE
  5
1C4
  8
0
 10
0.0
 20
-1.0
 30
0.0
 11
15.0
 21
-1.0
 31
0.0
  0
LINE
  5
1C5
  8
0
 10
15.0
 20
-1.0
 30
0.0
 11
22.5
 21
-9.0
 31
0.0
  0
LINE
  5
1C6
  8
0
 10
22.5
 20
-9.0
 30
0.0
 11
30.0
 21
-1.0
 31
0.0
  0
LINE
  5
1C7
  8
0
 10
30.0
 20
-1.0
 30
0.0
 11
37.5
 21
-9.0
 31
0.0
  0
LINE
  5
1C8
  8
0
 10
37.5
 20
-9.0
 30
0.0
 11
40.0
 21
-1.0
 31
0.0
  0
LINE
  5
1C9
  8
0
 10
40.0
 20
-1.0
 30
0.0
 11
75.0
 21
-1.0
 31
0.0
  0
LINE
  5
1CA
  8
0
 10
75.0
 20
-1.0
 30
0.0
 11
75.0
 21
0.0
 31
0.0
  0
LINE
  5
1CB
  8
0
 10
75.0
 20
0.0
 30
0.0
 11
0.0
 21
0.0
 31
0.0
  0
LINE
  5
1CC
  8
0
 10
0.0
 20
-1.0
 30
0.0
 11
15.0
 21
-1.0
 31
0.0
  0
LINE
  5
1CD
  8
0
 10
15.0
 20
-1.0
 30
0.0
 11
15.0
 21
0.0
 31
0.0
  0
LINE
  5
1CE
  8
0
 10
15.0
 20
0.0
 30
0.0
 11
7.0
 21
0.0
 31
0.0
  0
LINE
  5
1CF
  8
0
 10
7.0
 20
0.0
 30
0.0
 11
7.0
 21
12.0
 31
0.0
  0
LINE
  5
1D0
  8
0
 10
7.0
 20
12.0
 30
0.0
 11
6.0
 21
12.0
 31
0.0
  0
LINE
  5
1D1
  8
0
 10
6.0
 20
12.0
 30
0.0
 11
6.0
 21
0.0
 31
0.0
  0
LINE
  5
1D2
  8
0
 10
6.0
 20
0.0
 30
0.0
 11
0.0
 21
0.0
 31
0.0
  0
LINE
  5
1D3
  8
0
 10
0.0
 20
-4.0
 30
0.0
 11
15.0
 21
-4.0
 31
0.0
  0
LINE
  5
1D4
  8
0
 10
0.0
 20
-1.0
 30
0.0
 11
12.0
 21
-1.0
 31
0.0
  0
LINE
  5
1D5
  8
0
 10
12.0
 20
-1.0
 30
0.0
 11
12.0
 21
0.0
 31
0.0
  0
LINE
  5
1D6
  8
0
 10
12.0
 20
0.0
 30
0.0
 11
9.0
 21
0.0
 31
0.0
  0
LINE
  5
1D7
  8
0
 10
9.0
 20
0.0
 30
0.0
 11
6.0
 21
6.0
 31
0.0
  0
LINE
  5
1D8
  8
0
 10
6.0
 20
6.0
 30
0.0
 11
3.0
 21
0.0
 31
0.0
  0
LINE
  5
1D9
  8
0
 10
3.0
 20
0.0
 30
0.0
 11
0.0
 21
0.0
 31
0.0
  0
LINE
  5
1DA
  8
0
 10
0.0
 20
0.0
 30
0.0
 11
4.0
 21
-2.0
 31
0.0
  0
LINE
  5
1DB
  8
0
 10
4.0
 20
-2.0
 30
0.0
 11
8.0
 21
-2.0
 31
0.0
  0
LINE
  5
1DC
  8
0
 10
8.0
 20
-2.0
 30
0.0
 11
12.0
 21
0.0
 31
0.0
  0
LINE
  5
1DD
  8
0
 10
12.0
 20
0.0
 30
0.0
 11
15.0
 21
0.0
 31
0.0
  0
LINE
  5
1DE
  8
0
 10
15.0
 20
0.0
 30
0.0
 11
15.0
 21
2.0
 31
0.0
  0
LINE
  5
1DF
  8
0
 10
15.0
 20
2.0
 30
0.0
 11
12.0
 21
2.0
 31
0.0
  0
LINE
  5
1E0
  8
0
 10
12.0
 20
2.0
 30
0.0
 11
8.0
 21
4.0
 31
0.0
  0
LINE
  5
1E1
  8
0
 10
8.0
 20
4.0
 30
0.0
 11
4.0
 21
4.0
 31
0.0
  0
LINE
  5
1E2
  8
0
 10
4.0
 20
4.0
 30
0.0
 11
0.0
 21
2.0
 31
0.0
  0
LINE
  5
1E3
  8
0
 10
0.0
 20
2.0
 30
0.0
 11
0.0
 21
0.0
 31
0.0
  0
LINE
  5
1E4
  8
0
 10
0.0
 20
-1.0
 30
0.0
 11
15.0
 21
-1.0
 31
0.0
  0
LINE
  5
1E5
  8
0
 10
15.0
 20
-1.0
 30
0.0
 11
15.0
 21
0.0
 31
0.0
  0
LINE
  5
1E6
  8
0
 10
15.0
 20
0.0
 30
0.0
 11
7.0
 21
0.0
 31
0.0
  0
LINE
  5
1E7
  8
0
 10
7.0
 20
0.0
 30
0.0
 11
7.0
 21
12.0
 31
0.0
  0
LINE
  5
1E8
  8
0
 10
7.0
 20
12.0
 30
0.0
 11
6.0
 21
12.0
 31
0.0
  0
LINE
  5
1E9
  8
0
 10
6.0
 20
12.0
 30
0.0
 11
6.0
 21
0.0
 31
0.0
  0
LINE
  5
1EA
  8
0
 10
6.0
 20
0.0
 30
0.0
 11
0.0
 21
0.0
 31
0.0
  0
LINE
  5
1EB
  8
0
 10
0.0
 20
0.0
 30
0.0
 11
15.0
 21
0.0
 31
0.0
  0
LINE
  5
1EC
  8
0
 10
15.0
 20
0.0
 30
0.0
 11
15.0
 21
1.0
 31
0.0
  0
LINE
  5
1ED
  8
0
 10
15.0
 20
1.0
 30
0.0
 11
1.0
 21
1.0
 31
0.0
  0
LINE
  5
1EE
  8
0
 10
1.0
 20
1.0
 30
0.0
 11
1.0
 21
2.0
 31
0.0
  0
LINE
  5
1EF
  8
0
 10
1.0
 20
2.0
 30
0.0
 11
15.0
 21
2.0
 31
0.0
  0
LINE
  5
1F0
  8
0
 10
15.0
 20
2.0
 30
0.0
 11
15.0
 21
3.0
 31
0.0
  0
LINE
  5
1F1
  8
0
 10
15.0
 20
3.0
 30
0.0
 11
9.0
 21
3.0
 31
0.0
  0
LINE
  5
1F2
  8
0
 10
9.0
 20
3.0
 30
0.0
 11
9.0
 21
14.0
 31
0.0
  0
LINE
  5
1F3
  8
0
 10
9.0
 20
14.0
 30
0.0
 11
8.0
 21
14.0
 31
0.0
  0
LINE
  5
1F4
  8
0
 10
8.0
 20
14.0
 30
0.0
 11
8.0
 21
3.0
 31
0.0
  0
LINE
  5
1F5
  8
0
 10
8.0
 20
3.0
 30
0.0
 11
7.0
 21
3.0
 31
0.0
  0
LINE
  5
1F6
  8
0
 10
7.0
 20
3.0
 30
0.0
 11
7.0
 21
14.0
 31
0.0
  0
LINE
  5
1F7
  8
0
 10
7.0
 20
14.0
 30
0.0
 11
6.0
 21
14.0
 31
0.0
  0
LINE
  5
1F8
  8
0
 10
6.0
 20
14.0
 30
0.0
 11
6.0
 21
3.0
 31
0.0
  0
LINE
  5
1F9
  8
0
 10
6.0
 20
3.0
 30
0.0
 11
0.0
 21
3.0
 31
0.0
  0
LINE
  5
1FA
  8
0
 10
0.0
 20
3.0
 30
0.0
 11
0.0
 21
0.0
 31
0.0
  0
LINE
  5
1FB
  8
0
 10
0.0
 20
0.0
 30
0.0
 11
10.0
 21
0.0
 31
0.0
  0
LINE
  5
1FC
  8
0
 10
10.0
 20
0.0
 30
0.0
 11
10.0
 21
8.0
 31
0.0
  0
LINE
  5
1FD
  8
0
 10
10.0
 20
8.0
 30
0.0
 11
20.0
 21
8.0
 31
0.0
  0
LINE
  5
1FE
  8
0
 10
20.0
 20
8.0
 30
0.0
 11
20.0
 21
0.0
 31
0.0
  0
LINE
  5
1FF
  8
0
 10
20.0
 20
0.0
 30
0.0
 11
30.0
 21
0.0
 31
0.0
  0
LINE
  5
200
  8
0
 10
30.0
 20
0.0
 30
0.0
 11
30.0
 21
-1.0
 31
0.0
  0
LINE
  5
201
  8
0
 10
30.0
 20
-1.0
 30
0.0
 11
0.0
 21
-1.0
 31
0.0
  0
LINE
  5
202
  8
0
 10
0.0
 20
0.0
 30
0.0
 11
30.0
 21
0.0
 31
0.0
  0
LINE
  5
203
  8
0
 10
30.0
 20
0.0
 30
0.0
 11
30.0
 21
-7.5
 31
0.0
  0
LINE
  5
204
  8
0
 10
30.0
 20
-7.5
 30
0.0
 11
0.0
 21
-7.5
 31
0.0
  0
LINE
  5
205
  8
0
 10
0.0
 20
-7.5
 30
0.0
 11
0.0
 21
0.0
 31
0.0
  0
LINE
  5
206
  8
0
 10
0.0
 20
0.0
 30
0.0
 11
10.0
 21
0.0
 31
0.0
  0
LINE
  5
207
  8
0
 10
10.0
 20
0.0
 30
0.0
 11
10.0
 21
-1.0
 31
0.0
  0
LINE
  5
208
  8
0
 10
10.0
 20
-1.0
 30
0.0
 11
0.0
 21
-1.0
 31
0.0
  0
LINE
  5
209
  8
0
 10
0.0
 20
-1.0
 30
0.0
 11
0.0
 21
-8.0
 31
0.0
  0
LINE
  5
20A
  8
0
 10
0.0
 20
-8.0
 30
0.0
 11
3.0
 21
-8.0
 31
0.0
  0
LINE
  5
20B
  8
0
 10
3.0
 20
-8.0
 30
0.0
 11
3.0
 21
-9.0
 31
0.0
  0
LINE
  5
20C
  8
0
 10
3.0
 20
-9.0
 30
0.0
 11
0.0
 21
-9.0
 31
0.0
  0
LINE
  5
20D
  8
0
 10
0.0
 20
0.0
 30
0.0
 11
0.0
 21
8.0
 31
0.0
  0
LINE
  5
20E
  8
0
 10
0.0
 20
8.0
 30
0.0
 11
1.0
 21
8.0
 31
0.0
  0
LINE
  5
20F
  8
0
 10
1.0
 20
8.0
 30
0.0
 11
1.0
 21
0.0
 31
0.0
  0
LINE
  5
210
  8
0
 10
1.0
 20
0.0
 30
0.0
 11
16.0
 21
0.0
 31
0.0
  0
LINE
  5
211
  8
0
 10
16.0
 20
0.0
 30
0.0
 11
16.0
 21
18.0
 31
0.0
  0
LINE
  5
212
  8
0
 10
16.0
 20
18.0
 30
0.0
 11
17.0
 21
18.0
 31
0.0
  0
LINE
  5
213
  8
0
 10
17.0
 20
18.0
 30
0.0
 11
17.0
 21
0.0
 31
0.0
  0
LINE
  5
214
  8
0
 10
17.0
 20
0.0
 30
0.0
 11
32.0
 21
0.0
 31
0.0
  0
LINE
  5
215
  8
0
 10
32.0
 20
0.0
 30
0.0
 11
32.0
 21
-1.0
 31
0.0
  0
LINE
  5
216
  8
0
 10
32.0
 20
-1.0
 30
0.0
 11
0.0
 21
-1.0
 31
0.0
  0
LINE
  5
217
  8
0
 10
0.0
 20
-1.0
 30
0.0
 11
0.0
 21
0.0
 31
0.0
  0
LINE
  5
218
  8
0
 10
0.0
 20
0.0
 30
0.0
 11
0.0
 21
8.0
 31
0.0
  0
LINE
  5
219
  8
0
 10
0.0
 20
8.0
 30
0.0
 11
1.0
 21
8.0
 31
0.0
  0
LINE
  5
21A
  8
0
 10
1.0
 20
8.0
 30
0.0
 11
1.0
 21
0.0
 31
0.0
  0
LINE
  5
21B
  8
0
 10
1.0
 20
0.0
 30
0.0
 11
16.0
 21
0.0
 31
0.0
  0
LINE
  5
21C
  8
0
 10
16.0
 20
0.0
 30
0.0
 11
16.0
 21
18.0
 31
0.0
  0
LINE
  5
21D
  8
0
 10
16.0
 20
18.0
 30
0.0
 11
17.0
 21
18.0
 31
0.0
  0
LINE
  5
21E
  8
0
 10
17.0
 20
18.0
 30
0.0
 11
17.0
 21
0.0
 31
0.0
  0
LINE
  5
21F
  8
0
 10
17.0
 20
0.0
 30
0.0
 11
32.0
 21
0.0
 31
0.0
  0
LINE
  5
220
  8
0
 10
32.0
 20
0.0
 30
0.0
 11
32.0
 21
-1.0
 31
0.0
  0
LINE
  5
221
  8
0
 10
32.0
 20
-1.0
 30
0.0
 11
0.0
 21
-1.0
 31
0.0
  0
LINE
  5
222
  8
0
 10
0.0
 20
-1.0
 30
0.0
 11
0.0
 21
0.0
 31
0.0
  0
LINE
  5
223
  8
0
 10
0.0
 20
0.0
 30
0.0
 11
0.0
 21
8.0
 31
0.0
  0
LINE
  5
224
  8
0
 10
0.0
 20
8.0
 30
0.0
 11
1.0
 21
8.0
 31
0.0
  0
LINE
  5
225
  8
0
 10
1.0
 20
8.0
 30
0.0
 11
1.0
 21
0.0
 31
0.0
  0
LINE
  5
226
  8
0
 10
1.0
 20
0.0
 30
0.0
 11
16.0
 21
0.0
 31
0.0
  0
LINE
  5
227
  8
0
 10
16.0
 20
0.0
 30
0.0
 11
16.0
 21
18.0
 31
0.0
  0
LINE
  5
228
  8
0
 10
16.0
 20
18.0
 30
0.0
 11
17.0
 21
18.0
 31
0.0
  0
LINE
  5
229
  8
0
 10
17.0
 20
18.0
 30
0.0
 11
17.0
 21
0.0
 31
0.0
  0
LINE
  5
22A
  8
0
 10
0.0
 20
0.0
 30
0.0
 11
0.0
 21
8.0
 31
0.0
  0
LINE
  5
22B
  8
0
 10
0.0
 20
8.0
 30
0.0
 11
1.0
 21
8.0
 31
0.0
  0
LINE
  5
22C
  8
0
 10
1.0
 20
8.0
 30
0.0
 11
1.0
 21
0.0
 31
0.0
  0
LINE
  5
22D
  8
0
 10
1.0
 20
0.0
 30
0.0
 11
16.0
 21
0.0
 31
0.0
  0
LINE
  5
22E
  8
0
 10
16.0
 20
0.0
 30
0.0
 11
16.0
 21
18.0
 31
0.0
  0
LINE
  5
22F
  8
0
 10
16.0
 20
18.0
 30
0.0
 11
17.0
 21
18.0
 31
0.0
  0
LINE
  5
230
  8
0
 10
17.0
 20
18.0
 30
0.0
 11
17.0
 21
0.0
 31
0.0
  0
LINE
  5
231
  8
0
 10
17.0
 20
0.0
 30
0.0
 11
32.0
 21
0.0
 31
0.0
  0
LINE
  5
232
  8
0
 10
32.0
 20
0.0
 30
0.0
 11
32.0
 21
-1.0
 31
0.0
  0
LINE
  5
233
  8
0
 10
32.0
 20
-1.0
 30
0.0
 11
0.0
 21
-1.0
 31
0.0
  0
LINE
  5
234
  8
0
 10
0.0
 20
-1.0
 30
0.0
 11
0.0
 21
0.0
 31
0.0
  0
LINE
  5
235
  8
0
 10
0.0
 20
0.0
 30
0.0
 11
0.0
 21
-3.0
 31
0.0
  0
LINE
  5
236
  8
0
 10
0.0
 20
-3.0
 30
0.0
 11
9.0
 21
-9.0
 31
0.0
  0
LINE
  5
237
  8
0
 10
9.0
 20
-9.0
 30
0.0
 11
9.0
 21
-6.0
 31
0.0
  0
LINE
  5
238
  8
0
 10
9.0
 20
-6.0
 30
0.0
 11
0.0
 21
-12.0
 31
0.0
  0
LINE
  5
239
  8
0
 10
0.0
 20
-12.0
 30
0.0
 11
0.0
 21
-15.0
 31
0.0
  0
LINE
  5
23A
  8
0
 10
0.0
 20
-15.0
 30
0.0
 11
12.0
 21
-9.0
 31
0.0
  0
LINE
  5
23B
  8
0
 10
12.0
 20
-9.0
 30
0.0
 11
12.0
 21
-6.0
 31
0.0
  0
LINE
  5
23C
  8
0
 10
12.0
 20
-6.0
 30
0.0
 11
0.0
 21
0.0
 31
0.0
  0
LINE
  5
23D
  8
0
 10
0.0
 20
0.0
 30
0.0
 11
15.0
 21
0.0
 31
0.0
  0
LINE
  5
23E
  8
0
 10
15.0
 20
0.0
 30
0.0
 11
15.0
 21
-7.0
 31
0.0
  0
LINE
  5
23F
  8
0
 10
15.0
 20
-7.0
 30
0.0
 11
20.0
 21
0.0
 31
0.0
  0
LINE
  5
240
  8
0
 10
20.0
 20
0.0
 30
0.0
 11
20.0
 21
1.0
 31
0.0
  0
LINE
  5
241
  8
0
 10
20.0
 20
1.0
 30
0.0
 11
15.0
 21
8.0
 31
0.0
  0
LINE
  5
242
  8
0
 10
15.0
 20
8.0
 30
0.0
 11
15.0
 21
1.0
 31
0.0
  0
LINE
  5
243
  8
0
 10
15.0
 20
1.0
 30
0.0
 11
0.0
 21
1.0
 31
0.0
  0
LINE
  5
244
  8
0
 10
0.0
 20
-1.0
 30
0.0
 11
21.0
 21
-1.0
 31
0.0
  0
LINE
  5
245
  8
0
 10
21.0
 20
-1.0
 30
0.0
 11
13.5
 21
-9.0
 31
0.0
  0
LINE
  5
246
  8
0
 10
13.5
 20
-9.0
 30
0.0
 11
15.0
 21
-9.0
 31
0.0
  0
LINE
  5
247
  8
0
 10
15.0
 20
-9.0
 30
0.0
 11
22.5
 21
-1.0
 31
0.0
  0
LINE
  5
248
  8
0
 10
22.5
 20
-1.0
 30
0.0
 11
30.0
 21
-9.0
 31
0.0
  0
LINE
  5
249
  8
0
 10
30.0
 20
-9.0
 30
0.0
 11
31.5
 21
-9.0
 31
0.0
  0
LINE
  5
24A
  8
0
 10
31.5
 20
-9.0
 30
0.0
 11
24.0
 21
-1.0
 31
0.0
  0
LINE
  5
24B
  8
0
 10
24.0
 20
-1.0
 30
0.0
 11
75.0
 21
-1.0
 31
0.0
  0
LINE
  5
24C
  8
0
 10
75.0
 20
-1.0
 30
0.0
 11
75.0
 21
0.0
 31
0.0
  0
LINE
  5
24D
  8
0
 10
75.0
 20
0.0
 30
0.0
 11
24.0
 21
0.0
 31
0.0
  0
LINE
  5
24E
  8
0
 10
24.0
 20
0.0
 30
0.0
 11
31.5
 21
8.0
 31
0.0
  0
LINE
  5
24F
  8
0
 10
31.5
 20
8.0
 30
0.0
 11
30.0
 21
8.0
 31
0.0
  0
LINE
  5
250
  8
0
 10
30.0
 20
8.0
 30
0.0
 11
22.5
 21
0.0
 31
0.0
  0
LINE
  5
251
  8
0
 10
22.5
 20
0.0
 30
0.0
 11
15.0
 21
8.0
 31
0.0
  0
LINE
  5
252
  8
0
 10
15.0
 20
8.0
 30
0.0
 11
13.5
 21
8.0
 31
0.0
  0
LINE
  5
253
  8
0
 10
13.5
 20
8.0
 30
0.0
 11
21.0
 21
0.0
 31
0.0
  0
LINE
  5
254
  8
0
 10
21.0
 20
0.0
 30
0.0
 11
0.0
 21
0.0
 31
0.0
  0
LINE
  5
255
  8
0
 10
0.0
 20
-1.0
 30
0.0
 11
75.0
 21
-1.0
 31
0.0
  0
LINE
  5
256
  8
0
 10
75.0
 20
-1.0
 30
0.0
 11
75.0
 21
0.0
 31
0.0
  0
LINE
  5
257
  8
0
 10
75.0
 20
0.0
 30
0.0
 11
30.0
 21
0.0
 31
0.0
  0
LINE
  5
258
  8
0
 10
30.0
 20
0.0
 30
0.0
 11
22.0
 21
8.0
 31
0.0
  0
LINE
  5
259
  8
0
 10
22.0
 20
8.0
 30
0.0
 11
14.0
 21
0.0
 31
0.0
  0
LINE
  5
25A
  8
0
 10
14.0
 20
0.0
 30
0.0
 11
0.0
 21
0.0
 31
0.0
  0
LINE
  5
25B
  8
0
 10
0.0
 20
0.0
 30
0.0
 11
12.0
 21
0.0
 31
0.0
  0
LINE
  5
25C
  8
0
 10
12.0
 20
0.0
 30
0.0
 11
12.0
 21
-6.0
 31
0.0
  0
LINE
  5
25D
  8
0
 10
12.0
 20
-6.0
 30
0.0
 11
13.5
 21
-6.0
 31
0.0
  0
LINE
  5
25E
  8
0
 10
13.5
 20
-6.0
 30
0.0
 11
13.5
 21
0.0
 31
0.0
  0
LINE
  5
25F
  8
0
 10
13.5
 20
0.0
 30
0.0
 11
52.0
 21
0.0
 31
0.0
  0
LINE
  5
260
  8
0
 10
52.0
 20
0.0
 30
0.0
 11
52.0
 21
1.0
 31
0.0
  0
LINE
  5
261
  8
0
 10
52.0
 20
1.0
 30
0.0
 11
13.5
 21
1.0
 31
0.0
  0
LINE
  5
262
  8
0
 10
13.5
 20
1.0
 30
0.0
 11
13.5
 21
7.0
 31
0.0
  0
LINE
  5
263
  8
0
 10
13.5
 20
7.0
 30
0.0
 11
12.0
 21
7.0
 31
0.0
  0
LINE
  5
264
  8
0
 10
12.0
 20
7.0
 30
0.0
 11
12.0
 21
1.0
 31
0.0
  0
LINE
  5
265
  8
0
 10
12.0
 20
1.0
 30
0.0
 11
0.0
 21
1.0
 31
0.0
  0
LINE
  5
266
  8
0
 10
0.0
 20
1.0
 30
0.0
 11
0.0
 21
0.0
 31
0.0
  0
POLYLINE
  5
267
  8
0
 66
     1
 10
0.0
 20
0.0
 30
0.0
 70
     4
 75
     6
  0
VERTEX
  5
268
  8
0
 10
0.0
 20
-20.0
 30
0.0
 70
    16
  0
VERTEX
  5
26D
  8
0
 10
0.0
 20
-20.0
 30
0.0
 70
     8
  0
VERTEX
  5
26E
  8
0
 10
6.5625
 20
-18.28125
 30
0.0
 70
     8
  0
VERTEX
  5
26F
  8
0
 10
11.25
 20
-13.75
 30
0.0
 70
     8
  0
VERTEX
  5
270
  8
0
 10
14.0625
 20
-7.34375
 30
0.0
 70
     8
  0
VERTEX
  5
271
  8
0
 10
15.0
 20
0.0
 30
0.0
 70
     8
  0
VERTEX
  5
272
  8
0
 10
14.0625
 20
7.34375
 30
0.0
 70
     8
  0
VERTEX
  5
273
  8
0
 10
11.25
 20
13.75
 30
0.0
 70
     8
  0
VERTEX
  5
274
  8
0
 10
6.5625
 20
18.28125
 30
0.0
 70
     8
  0
VERTEX
  5
275
  8
0
 10
0.0
 20
20.0
 30
0.0
 70
     8
  0
VERTEX
  5
269
  8
0
 10
20.0
 20
-20.0
 30
0.0
 70
    16
  0
VERTEX
  5
26A
  8
0
 10
20.0
 20
20.0
 30
0.0
 70
    16
  0
VERTEX
  5
26B
  8
0
 10
0.0
 20
20.0
 30
0.0
 70
    16
  0
SEQEND
  5
26C
  8
0
  0
LINE
  5
276
  8
0
 10
0.0
 20
20.0
 30
0.0
 11
1.0
 21
20.0
 31
0.0
  0
POLYLINE
  5
277
  8
0
 66
     1
 10
0.0
 20
0.0
 30
0.0
 70
     4
 75
     6
  0
VERTEX
  5
278
  8
0
 10
1.0
 20
20.0
 30
0.0
 70
    16
  0
VERTEX
  5
27D
  8
0
 10
1.0
 20
20.0
 30
0.0
 70
     8
  0
VERTEX
  5
27E
  8
0
 10
7.5625
 20
18.28125
 30
0.0
 70
     8
  0
VERTEX
  5
27F
  8
0
 10
12.25
 20
13.75
 30
0.0
 70
     8
  0
VERTEX
  5
280
  8
0
 10
15.0625
 20
7.34375
 30
0.0
 70
     8
  0
VERTEX
  5
281
  8
0
 10
16.0
 20
0.0
 30
0.0
 70
     8
  0
VERTEX
  5
282
  8
0
 10
15.0625
 20
-7.34375
 30
0.0
 70
     8
  0
VERTEX
  5
283
  8
0
 10
12.25
 20
-13.75
 30
0.0
 70
     8
  0
VERTEX
  5
284
  8
0
 10
7.5625
 20
-18.28125
 30
0.0
 70
     8
  0
VERTEX
  5
285
  8
0
 10
1.0
 20
-20.0
 30
0.0
 70
     8
  0
VERTEX
  5
279
  8
0
 10
21.0
 20
20.0
 30
0.0
 70
    16
  0
VERTEX
  5
27A
  8
0
 10
21.0
 20
-20.0
 30
0.0
 70
    16
  0
VERTEX
  5
27B
  8
0
 10
1.0
 20
-20.0
 30
0.0
 70
    16
  0
SEQEND
  5
27C
  8
0
  0
LINE
  5
286
  8
0
 10
0.0
 20
-20.0
 30
0.0
 11
20.0
 21
0.0
 31
0.0
  0
LINE
  5
287
  8
0
 10
20.0
 20
0.0
 30
0.0
 11
0.0
 21
20.0
 31
0.0
  0
LINE
  5
288
  8
0
 10
0.0
 20
20.0
 30
0.0
 11
1.0
 21
20.0
 31
0.0
  0
LINE
  5
289
  8
0
 10
1.0
 20
20.0
 30
0.0
 11
21.0
 21
0.0
 31
0.0
  0
LINE
  5
28A
  8
0
 10
21.0
 20
0.0
 30
0.0
 11
1.0
 21
-20.0
 31
0.0
  0
LINE
  5
28B
  8
0
 10
0.0
 20
0.0
 30
0.0
 11
0.0
 21
-8.0
 31
0.0
  0
LINE
  5
28C
  8
0
 10
0.0
 20
-8.0
 30
0.0
 11
2.0
 21
-10.0
 31
0.0
  0
LINE
  5
28D
  8
0
 10
2.0
 20
-10.0
 30
0.0
 11
2.0
 21
-14.0
 31
0.0
  0
LINE
  5
28E
  8
0
 10
2.0
 20
-14.0
 30
0.0
 11
8.0
 21
-14.0
 31
0.0
  0
LINE
  5
28F
  8
0
 10
8.0
 20
-14.0
 30
0.0
 11
8.0
 21
-10.0
 31
0.0
  0
LINE
  5
290
  8
0
 10
8.0
 20
-10.0
 30
0.0
 11
6.0
 21
-8.0
 31
0.0
  0
LINE
  5
291
  8
0
 10
6.0
 20
-8.0
 30
0.0
 11
6.0
 21
0.0
 31
0.0
  0
LINE
  5
292
  8
0
 10
6.0
 20
0.0
 30
0.0
 11
0.0
 21
0.0
 31
0.0
  0
LINE
  5
293
  8
0
 10
0.0
 20
0.0
 30
0.0
 11
0.0
 21
-8.0
 31
0.0
  0
LINE
  5
294
  8
0
 10
0.0
 20
-8.0
 30
0.0
 11
2.0
 21
-10.0
 31
0.0
  0
LINE
  5
295
  8
0
 10
2.0
 20
-10.0
 30
0.0
 11
2.0
 21
-14.0
 31
0.0
  0
LINE
  5
296
  8
0
 10
2.0
 20
-14.0
 30
0.0
 11
8.0
 21
-14.0
 31
0.0
  0
LINE
  5
297
  8
0
 10
8.0
 20
-14.0
 30
0.0
 11
8.0
 21
-10.0
 31
0.0
  0
LINE
  5
298
  8
0
 10
8.0
 20
-10.0
 30
0.0
 11
6.0
 21
-8.0
 31
0.0
  0
LINE
  5
299
  8
0
 10
6.0
 20
-8.0
 30
0.0
 11
6.0
 21
0.0
 31
0.0
  0
LINE
  5
29A
  8
0
 10
6.0
 20
0.0
 30
0.0
 11
0.0
 21
0.0
 31
0.0
  0
LINE
  5
29B
  8
0
 10
0.0
 20
0.0
 30
0.0
 11
0.0
 21
-8.0
 31
0.0
  0
LINE
  5
29C
  8
0
 10
0.0
 20
-8.0
 30
0.0
 11
2.0
 21
-10.0
 31
0.0
  0
LINE
  5
29D
  8
0
 10
2.0
 20
-10.0
 30
0.0
 11
2.0
 21
-14.0
 31
0.0
  0
LINE
  5
29E
  8
0
 10
2.0
 20
-14.0
 30
0.0
 11
8.0
 21
-14.0
 31
0.0
  0
LINE
  5
29F
  8
0
 10
8.0
 20
-14.0
 30
0.0
 11
8.0
 21
-10.0
 31
0.0
  0
LINE
  5
2A0
  8
0
 10
8.0
 20
-10.0
 30
0.0
 11
6.0
 21
-8.0
 31
0.0
  0
LINE
  5
2A1
  8
0
 10
6.0
 20
-8.0
 30
0.0
 11
6.0
 21
0.0
 31
0.0
  0
LINE
  5
2A2
  8
0
 10
6.0
 20
0.0
 30
0.0
 11
0.0
 21
0.0
 31
0.0
  0
LINE
  5
2A3
  8
0
 10
0.0
 20
0.0
 30
0.0
 11
0.0
 21
-8.0
 31
0.0
  0
LINE
  5
2A4
  8
0
 10
0.0
 20
-8.0
 30
0.0
 11
2.0
 21
-10.0
 31
0.0
  0
LINE
  5
2A5
  8
0
 10
2.0
 20
-10.0
 30
0.0
 11
2.0
 21
-14.0
 31
0.0
  0
LINE
  5
2A6
  8
0
 10
2.0
 20
-14.0
 30
0.0
 11
8.0
 21
-14.0
 31
0.0
  0
LINE
  5
2A7
  8
0
 10
8.0
 20
-14.0
 30
0.0
 11
8.0
 21
-10.0
 31
0.0
  0
LINE
  5
2A8
  8
0
 10
8.0
 20
-10.0
 30
0.0
 11
6.0
 21
-8.0
 31
0.0
  0
LINE
  5
2A9
  8
0
 10
6.0
 20
-8.0
 30
0.0
 11
6.0
 21
0.0
 31
0.0
  0
LINE
  5
2AA
  8
0
 10
6.0
 20
0.0
 30
0.0
 11
0.0
 21
0.0
 31
0.0
  0
LINE
  5
2AB
  8
0
 10
0.0
 20
0.0
 30
0.0
 11
0.0
 21
-8.0
 31
0.0
  0
LINE
  5
2AC
  8
0
 10
0.0
 20
-8.0
 30
0.0
 11
2.0
 21
-10.0
 31
0.0
  0
LINE
  5
2AD
  8
0
 10
2.0
 20
-10.0
 30
0.0
 11
2.0
 21
-14.0
 31
0.0
  0
LINE
  5
2AE
  8
0
 10
2.0
 20
-14.0
 30
0.0
 11
8.0
 21
-14.0
 31
0.0
  0
LINE
  5
2AF
  8
0
 10
8.0
 20
-14.0
 30
0.0
 11
8.0
 21
-10.0
 31
0.0
  0
LINE
  5
2B0
  8
0
 10
8.0
 20
-10.0
 30
0.0
 11
6.0
 21
-8.0
 31
0.0
  0
LINE
  5
2B1
  8
0
 10
6.0
 20
-8.0
 30
0.0
 11
6.0
 21
0.0
 31
0.0
  0
LINE
  5
2B2
  8
0
 10
6.0
 20
0.0
 30
0.0
 11
0.0
 21
0.0
 31
0.0
  0
LINE
  5
2B3
  8
0
 10
0.0
 20
-1.0
 30
0.0
 11
12.0
 21
-1.0
 31
0.0
  0
LINE
  5
2B4
  8
0
 10
12.0
 20
-1.0
 30
0.0
 11
12.0
 21
0.0
 31
0.0
  0
LINE
  5
2B5
  8
0
 10
12.0
 20
0.0
 30
0.0
 11
9.0
 21
0.0
 31
0.0
  0
LINE
  5
2B6
  8
0
 10
9.0
 20
0.0
 30
0.0
 11
6.0
 21
6.0
 31
0.0
  0
LINE
  5
2B7
  8
0
 10
6.0
 20
6.0
 30
0.0
 11
3.0
 21
0.0
 31
0.0
  0
LINE
  5
2B8
  8
0
 10
3.0
 20
0.0
 30
0.0
 11
0.0
 21
0.0
 31
0.0
  0
LINE
  5
2B9
  8
0
 10
0.0
 20
0.0
 30
0.0
 11
0.0
 21
-4.0
 31
0.0
  0
LINE
  5
2BA
  8
0
 10
0.0
 20
-4.0
 30
0.0
 11
12.0
 21
-4.0
 31
0.0
  0
LINE
  5
2BB
  8
0
 10
12.0
 20
-4.0
 30
0.0
 11
12.0
 21
-7.0
 31
0.0
  0
LINE
  5
2BC
  8
0
 10
12.0
 20
-7.0
 30
0.0
 11
0.0
 21
-7.0
 31
0.0
  0
LINE
  5
2BD
  8
0
 10
0.0
 20
-7.0
 30
0.0
 11
0.0
 21
-3.0
 31
0.0
  0
LINE
  5
2BE
  8
0
 10
0.0
 20
0.0
 30
0.0
 11
13.0
 21
0.0
 31
0.0
  0
LINE
  5
2BF
  8
0
 10
13.0
 20
0.0
 30
0.0
 11
10.0
 21
-3.0
 31
0.0
  0
LINE
  5
2C0
  8
0
 10
10.0
 20
-3.0
 30
0.0
 11
11.0
 21
-3.0
 31
0.0
  0
LINE
  5
2C1
  8
0
 10
11.0
 20
-3.0
 30
0.0
 11
14.0
 21
0.0
 31
0.0
  0
LINE
  5
2C2
  8
0
 10
14.0
 20
0.0
 30
0.0
 11
14.0
 21
1.0
 31
0.0
  0
LINE
  5
2C3
  8
0
 10
14.0
 20
1.0
 30
0.0
 11
11.0
 21
4.0
 31
0.0
  0
LINE
  5
2C4
  8
0
 10
11.0
 20
4.0
 30
0.0
 11
10.0
 21
4.0
 31
0.0
  0
LINE
  5
2C5
  8
0
 10
10.0
 20
4.0
 30
0.0
 11
13.0
 21
1.0
 31
0.0
  0
LINE
  5
2C6
  8
0
 10
13.0
 20
1.0
 30
0.0
 11
0.0
 21
1.0
 31
0.0
  0
ENDSEC
  0
EOF
