/* XPM */
static char * XFACE[] = {
"40 30 2 1",
"1 c #99FF00",
"0 c #3355",
"0000000000000000000000000000000000000000",
"0000000000000000000000000000000000000000",
"0000000000000000000000000000000000000000",
"0000000000101100000000000000000000000000",
"0000000011000011000000000000000000000000",
"0000000100000000110000000000000000000000",
"0000001000000000001000000000000000000000",
"0000001000000001110000000000000000000000",
"0000000100001110000000000000000000000000",
"0000000011110000000000000000000000000000",
"0000000000000000000000000000000000000000",
"0000000000000000000000000000000000000000",
"0000000000000000000000000000000000000000",
"0000000000000000000000000000000000000000",
"0000000000000000000000000000000000000000",
"0000000000000000000000000000000000000000",
"0000000000000000000000000000000000000000",
"0000000000000000000000000000000000000000",
"0000000000000000000000000000000000000000",
"0000000000000000000000000000000000000000",
"0000000000000000000000000000000000000000",
"0000000000000000000000000000000000000000",
"0000000000000000000000000000011101000000",
"0000000000000000000000000011100000100000",
"0000000000000000000000011100000000010000",
"0000000000000000000000010000000000001000",
"0000000000000000000000011110000000000100",
"0000000000000000000000000011110000001000",
"0000000000000000000000000000001111110000",
"0000000000000000000000000000000000000000",
"0000000000000000000000000000000000000000",
"0000000000000000000000000000000000000000"
};
