/* XPM */
static char * XFACE[] = {
"40 30 2 1",
"1 c #CC9966",
"0 c #443322",
"0000001000000000000000000000000000000000",
"0000001000000000000000000000000000000000",
"0000001000000000000000000000000000000000",
"0000001000000000000000000000000000000000",
"0000001000000000000000000000000000000000",
"0000001000000000000000000000000000000000",
"0000001000000000000000000000000000000000",
"1111111111111100000000000000000000000001",
"0000001000000000000000000000000000000000",
"0000001000000000000000000000000000000000",
"0000001000000000000000000000000000000000",
"0000001000000000000000000000000000000000",
"0000001000000000000000000000000000000000",
"0000001000000000000000000000000000000000",
"0000001000000000000000000000000000000000",
"0000000000000000000000000000000000000000",
"0000000000000000000000000000000000000000",
"0000000000000000000000000000000000000000",
"0000000000000000000000000000000000000000",
"0000000000000000000000000000000000000000",
"0000000000000000000000000001000000000000",
"0000000000000000000000000001000000000000",
"0000000000000000000000000001000000000000",
"0000000000000000000000000001000000000000",
"0000000000000000000000000001000000000000",
"0000000000000000000000000001000000000000",
"0000000000000000000000000001000000000000",
"0000000000000000000011111111111111100000",
"0000000000000000000000000001000000000000",
"0000000000000000000000000001000000000000",
"0000000000000000000000000001000000000000",
"0000000000000000000000000001000000000000",
"0000000000000000000000000001000000000000",
"0000000000000000000000000001000000000000",
"0000000000000000000000000001000000000000",
"0000000000000000000000000000000000000000",
"0000000000000000000000000000000000000000",
"0000000000000000000000000000000000000000",
"0000000000000000000000000000000000000000",
"0000000000000000000000000000000000000000"
};
