/* XPM */
static char * XFACE[] = {
"40 37 2 1",
"1 c #FF6666",
"0 c #552222",
"0000000000000000000000000000000000000000",
"0000000011000000000000000000000000000000",
"0000000000110000000000000000000000000000",
"0000000000001100000000000000000000000000",
"0000000000000011000000000000000000000000",
"0000000000000000110000000000000000000000",
"0000000000000000001000000000000000000000",
"0000000000000001110000000000000000000000",
"0000000000001110000000000000000000000000",
"0000000001110000000000000000000000000000",
"0000001110000000000000000000000000000000",
"0000110000000000000000000000000000000000",
"0000000000000000000000000000000000000000",
"0000000000000000000000000000000000000000",
"0000000000000000000000000000000000000000",
"0000000000000000000000000000000000000000",
"0000000000000000000000000000000000000000",
"0000000000000000000000000000000000000000",
"0000000000000000000000000000000000000000",
"0000000000000000000001000000000000000000",
"0000000000000000000001000000000000000000",
"0000000000000000000010000000000000000000",
"0000000000000000000010000000000000000000",
"0000000000000000000100000000000001110000",
"0000000000000000000100000000011110000000",
"0000000000000000001000000111100000000000",
"0000000000000000001001111000000000000000",
"0000000000000000011110000000000000000000",
"0000000000000000010000000000000000000000",
"0000000000000000000000000000000000000000",
"0000000000000000000000000000000000000000",
"0000000000000000000000000000000000000000",
"0000000000000000000000000000000000000000",
"0000000000000000000000000000000000000000",
"0000000000000000000000000000000000000000",
"0000000000000000000000000000000000000000",
"0000000000000000000000000000000000000000"
};
