/* XPM */
static char * XFACE[] = {
"40 30 2 1",
"1 c #99CCCC",
"0 c #334444",
"0000000100000000000000000000000000000000",
"0000000100000000000000000000000000000000",
"0000000100000000000000000000000000000000",
"0000000100000000000000000000000000000000",
"0000000100000000000000000000000000000000",
"0000000100000000000000000000000000000000",
"0000000100000000000000000000000000000000",
"0000000100000000000000000000000000000000",
"0000000100000000000000000000000000000000",
"1111111111111111111111111111111111111111",
"0000000000000000000000100000000000000000",
"0000000000000000000000100000000000000000",
"0000000000000000000000100000000000000000",
"0000000000000000000000100000000000000000",
"0000000000000000000000100000000000000000",
"0000000000000000000000100000000000000000",
"0000000000000000000000100000000000000000",
"0000000000000000000000100000000000000000",
"0000000000000000000000100000000000000000",
"0000000000000000000000100000000000000000",
"0000000000000000000000100000000000000000",
"0000000000000000000000100000000000000000",
"0000000000000000000000100000000000000000",
"0000000000000000000000100000000000000000",
"0000000000000000000000100000000000000000",
"0000000000000000000000100000000000000000",
"0000000000000000000000100000000000000000",
"1111111111111111111111111111111111111111",
"0000000100000000000000000000000000000000",
"0000000100000000000000000000000000000000"
};
