/* XPM */
static char * XFACE[] = {
"50 40 2 1",
"1 c #CC9933",
"0 c #443311",
"00000000000000000000000011000000000000000000000000",
"00000000000000000000000011000000000000000000000000",
"00000000000000000000000011000000000000000000000000",
"00000000000000000000000011000000000000000000000000",
"00000000000000000000000011000000000000000000000000",
"00000000000000000000000011000000000000000000000000",
"00000000000000000000000011000000000000000000000000",
"00000000000000000000000011000000000000000000000000",
"00000000000000000000011110111100000000000000000000",
"00000000000000000111100000000011110000000000000000",
"00000000000001111000000000000000001111000000000000",
"00000000011110000000000000000000000000111100000000",
"00000111100000000000000000000000000000000011110000",
"10111000000000000000000000000000000000000000001111",
"10000000000000000000000000000000000000000000000001",
"10000000000000000000000000000000000000000000000001",
"10000000000000000000000000000000000000000000000001",
"10000000000000000000000000000000000000000000000001",
"10000000000000000000000000000000000000000000000001",
"10000000000000000000000000000000000000000000000001",
"10000000000000000000000000000000000000000000000001",
"10000000000000000000000000000000000000000000000001",
"10000000000000000000000000000000000000000000000001",
"10000000000000000000000000000000000000000000000001",
"10000000000000000000000000000000000000000000000001",
"10000000000000000000000000000000000000000000000001",
"10000000000000000000000000000000000000000000000001",
"10000000000000000000000000000000000000000000000001",
"11111000000000000000000000000000000000000000001111",
"00000111100000000000000000000000000000000011110000",
"00000000011110000000000000000000000000111100000000",
"00000000000001111000000000000000001111000000000000",
"00000000000000000111100000000011110000000000000000",
"00000000000000000000011110111100000000000000000000",
"00000000000000000000000011000000000000000000000000",
"00000000000000000000000011000000000000000000000000",
"00000000000000000000000011000000000000000000000000",
"00000000000000000000000011000000000000000000000000",
"00000000000000000000000011000000000000000000000000",
"00000000000000000000000011000000000000000000000000"
};
