/* XPM */
static char * XFACE[] = {
"44 26 2 1",
"1 c #FFFFFF",
"0 c #555555",
"00000000000000000000000000000000000000000000",
"00000000000000000000000000000000000000000000",
"00000000000000000000000000000000000000000000",
"00111111111110000000000000111111111110000000",
"00100000000010000000000000100000000010000000",
"00100000000010000000000000100000000010000000",
"00100000000010000000000000100000000010000000",
"00100000000010000000000000100000000010000000",
"00100000000010000000000000100000000010000000",
"00100000000010000000000000100000000010000000",
"00100000000010000000000000100000000010000000",
"00111111111110000000000000111111111110000000",
"00000000000000000000000000000000000000000000",
"00000000000000000000000000000000000000000000",
"00000000000000000000000000000000000000000000",
"00000000000000000000000000000000000000000000",
"00000000000000000000000000000000000000000000",
"00000000000000000000000000000000000000000000",
"00000000000000000000000000000000000000000000",
"00000000000000000000000000000000000000000000",
"00000000000000000000000000000000000000000000",
"00000000000000000000000000000000000000000000",
"00000000000000000000000000000000000000000000",
"00000000000000000000000000000000000000000000",
"00000000000000000000000000000000000000000000",
"00000000000000000000000000000000000000000000"
};
