/* XPM */
static char * XFACE[] = {
"40 13 2 1",
"1 c #CC9966",
"0 c #443322",
"0000000000000000000000000000000000000000",
"1111111111111111111111111111111111111111",
"0000000000000000000000000000000000000000",
"0000000000000000000000000000000000000000",
"0000000000000000000000000000000000000000",
"0000000000000000000000000000000000000000",
"0000000000000000000000000000000000000000",
"0000000000000000000000000000000000000000",
"0000000000000000000000000000000000000000",
"0000000000000000000000000000000000000000",
"0000000000000000000000000000000000000000",
"0000000000000000000000000000000000000000",
"0000000000000000000000000000000000000000"
};
