/* XPM */
static char * XFACE[] = {
"40 20 2 1",
"1 c #CC6666",
"0 c #442222",
"0000000000000000000000000000000000000000",
"0000000000000000000000000000000000000000",
"0000000000111111000000000000001111110000",
"0000000000000000000000000000000000000000",
"0000000000000000000000000000000000000000",
"0000000000000000000000000000000000000000",
"0000000000000000000000000000000000000000",
"0000000000000000000000000000000000000000",
"0000000000000000000000000000000000000000",
"0000000000000000000000000000000000000000",
"0000000000000000000000000000000000000000",
"0111111000000000000001111110000000000000",
"0000000000000000000000000000000000000000",
"0000000000000000000000000000000000000000",
"0000000000000000000000000000000000000000",
"0000000000000000000000000000000000000000",
"0000000000000000000000000000000000000000",
"0000000000000000000000000000000000000000",
"0000000000000000000000000000000000000000",
"0000000000000000000000000000000000000000"
};
