/* XPM */
static char * XFACE[] = {
"40 26 2 1",
"1 c #FF9966",
"0 c #553322",
"0000000000000000000000000000000000000000",
"0000000000000000000000000000000000000000",
"0000000000000000000000000000000000000000",
"0011111111100000000000000000000000000000",
"0001111111000000000000000000000000000000",
"0000111110000000000000000000000000000000",
"0000011100000000000000000000000000000000",
"0000001000000000000000000000000000000000",
"0000000000000000000000000000000000000000",
"0000000000000000000000000010000000000000",
"0000000000000000000000000111100000000000",
"0000000000000000000000001111111000000000",
"0000000000000000000000011111111110000000",
"0000000001000000000000000000111111000000",
"0000000001110000000000000000000011110000",
"0000000001111100000000000000000000000000",
"0000000001111111000000000000000000000000",
"0000000001111111110000000000000000000000",
"0000000001111111000000000000000000000000",
"0000000001111100000000000000000000000000",
"0000000001110000000000000000000000000000",
"0000000001000000000000000000000000000000",
"0000000000000000000000000000000000000000",
"0000000000000000000000000000000000000000",
"0000000000000000000000000000000000000000",
"0000000000000000000000000000000000000000"
};
